<svg width="60" height="60" viewBox="0 0 60 60" fill="none" xmlns="http://www.w3.org/2000/svg">
<g id="travel-map 1">
<g id="Group">
<path id="Vector" d="M58.964 57.7059L44.9015 29.5809C44.7422 29.2631 44.4178 29.0625 44.0625 29.0625H34.7878L34.9059 28.5516C38.669 27.2663 41.25 23.6991 41.25 19.6875C41.25 14.5181 37.0443 10.3125 31.875 10.3125C26.7056 10.3125 22.5 14.5181 22.5 19.6875C22.5 23.6991 25.0809 27.2663 28.844 28.5516L28.9622 29.0625H15.9375C15.5822 29.0625 15.2578 29.2631 15.0984 29.5809L1.03591 57.7059C0.890594 57.9966 0.905594 58.3416 1.07716 58.6181C1.24872 58.8937 1.54966 59.0625 1.87497 59.0625H58.125C58.4503 59.0625 58.7512 58.8937 58.9228 58.6181C59.0934 58.3416 59.1093 57.9966 58.964 57.7059ZM28.3997 53.1628L32.4243 57.1875H29.4506L22.2253 49.9622C21.8587 49.5956 21.2662 49.5956 20.8997 49.9622L13.6743 57.1875H10.7006L19.4128 48.4753C19.7793 48.1087 19.7793 47.5163 19.4128 47.1497L12.0778 39.8147L13.0687 37.8319L17.1487 41.9119C17.3325 42.0956 17.5725 42.1875 17.8125 42.1875C18.0525 42.1875 18.2925 42.0956 18.4753 41.9128L23.1628 37.2253C23.339 37.05 23.4375 36.8109 23.4375 36.5625V30.9375H25.3125V38.0494L19.9622 43.3997C19.5956 43.7663 19.5956 44.3587 19.9622 44.7253L25.5872 50.3503C25.77 50.5331 26.01 50.625 26.25 50.625C26.49 50.625 26.73 50.5331 26.9128 50.3503L35.0756 42.1875H49.1081L50.0456 44.0625H36.5625C36.3131 44.0625 36.075 44.1609 35.8997 44.3372L28.3997 51.8372C28.0331 52.2038 28.0331 52.7962 28.3997 53.1628ZM26.7993 57.1875H16.3256L21.5625 51.9506L26.7993 57.1875ZM24.375 19.6875C24.375 15.5522 27.7397 12.1875 31.875 12.1875C36.0103 12.1875 39.375 15.5522 39.375 19.6875C39.375 23.0484 37.109 26.0184 33.8653 26.9109C33.5334 27.0028 33.2784 27.2681 33.2006 27.6038L31.875 33.3384L30.5493 27.6038C30.4715 27.2681 30.2165 27.0019 29.8847 26.9109C26.6409 26.0184 24.375 23.0484 24.375 19.6875ZM30.9609 37.7109C31.0603 38.1366 31.4381 38.4375 31.875 38.4375C32.3118 38.4375 32.6897 38.1366 32.789 37.7109L34.3547 30.9375H43.4831L48.1706 40.3125H34.6875C34.4381 40.3125 34.2 40.4109 34.0247 40.5872L26.25 48.3619L21.9506 44.0625L26.9128 39.1003C27.089 38.925 27.1875 38.6859 27.1875 38.4375V30.9375H29.3953L30.9609 37.7109ZM16.5168 30.9375H21.5625V36.1744L17.8125 39.9244L13.9528 36.0647L16.5168 30.9375ZM11.1947 41.5828L17.4243 47.8125L8.04934 57.1875H3.39184L11.1947 41.5828ZM35.0756 57.1875L30.3881 52.5L36.9506 45.9375H50.9831L54.7331 53.4375H50.189L46.7175 48.2297C46.5618 47.9953 46.3087 47.8444 46.0303 47.8172C45.7472 47.7881 45.4734 47.8894 45.2747 48.0872L43.5 49.8609L42.0637 47.3466C41.7309 46.7625 40.769 46.7625 40.4362 47.3466L36.9562 53.4375H34.6875V55.3125H55.6706L56.6081 57.1875H35.0756ZM43.3847 53.4375H39.1153L41.25 49.7025L43.3847 53.4375ZM45.5437 53.4375L44.4647 51.5484L45.7922 50.2219L47.9362 53.4375H45.5437Z" fill="url(#paint0_linear)"/>
<path id="Vector_2" d="M35.625 19.6875H37.5C37.5 16.5853 34.9772 14.0625 31.875 14.0625V15.9375C33.9431 15.9375 35.625 17.6194 35.625 19.6875Z" fill="url(#paint1_linear)"/>
<path id="Vector_3" d="M34.124 22.6875L35.25 24.1875C36.0281 23.6025 36.6431 22.8253 37.0303 21.9375L35.3128 21.1875C35.0559 21.7791 34.6443 22.2975 34.124 22.6875Z" fill="url(#paint2_linear)"/>
<path id="Vector_4" d="M3.75 14.0625C3.43688 14.0625 3.14438 14.2191 2.97 14.4797L1.095 17.2922C0.885 17.6072 0.885 18.0169 1.095 18.3319L2.97 21.1444C3.14438 21.4059 3.43688 21.5625 3.75 21.5625H8.4375V30C8.4375 30.5175 8.85656 30.9375 9.375 30.9375H13.125C13.6434 30.9375 14.0625 30.5175 14.0625 30V21.5625H20.625C20.9709 21.5625 21.2887 21.3722 21.4519 21.0675C21.615 20.7628 21.5963 20.3925 21.405 20.1056L19.8769 17.8125L21.405 15.5203C21.5963 15.2325 21.615 14.8631 21.4519 14.5584C21.2887 14.2537 20.9709 14.0625 20.625 14.0625H14.0625V12.1875H18.75C19.0631 12.1875 19.3556 12.0309 19.53 11.7703L21.405 8.95781C21.615 8.64281 21.615 8.23313 21.405 7.91813L19.53 5.10563C19.3556 4.84406 19.0631 4.6875 18.75 4.6875H14.0625V1.875C14.0625 1.3575 13.6434 0.9375 13.125 0.9375H9.375C8.85656 0.9375 8.4375 1.3575 8.4375 1.875V4.6875H1.875C1.52906 4.6875 1.21125 4.87781 1.04813 5.1825C0.885 5.48719 0.90375 5.8575 1.095 6.14437L2.62313 8.4375L1.095 10.7297C0.90375 11.0175 0.885 11.3869 1.04813 11.6916C1.21125 11.9963 1.52906 12.1875 1.875 12.1875H8.4375V14.0625H3.75ZM12.1875 29.0625H10.3125V21.5625H12.1875V29.0625ZM17.97 18.3328L18.8738 19.6875H4.25156L3.00187 17.8125L4.25156 15.9375H18.8738L17.97 17.2922C17.76 17.6072 17.76 18.0178 17.97 18.3328ZM10.3125 2.8125H12.1875V4.6875H10.3125V2.8125ZM4.53 7.91719L3.62625 6.5625H18.2484L19.4981 8.4375L18.2484 10.3125H3.62625L4.53 8.95781C4.74 8.64281 4.74 8.23219 4.53 7.91719ZM10.3125 12.1875H12.1875V14.0625H10.3125V12.1875Z" fill="url(#paint3_linear)"/>
<path id="Vector_5" d="M4.6875 16.875H6.5625V18.75H4.6875V16.875Z" fill="url(#paint4_linear)"/>
<path id="Vector_6" d="M8.43744 16.875H10.3124V18.75H8.43744V16.875Z" fill="url(#paint5_linear)"/>
<path id="Vector_7" d="M15.9375 7.5H17.8125V9.375H15.9375V7.5Z" fill="url(#paint6_linear)"/>
<path id="Vector_8" d="M12.1875 7.5H14.0625V9.375H12.1875V7.5Z" fill="url(#paint7_linear)"/>
</g>
</g>
<defs>
<linearGradient id="paint0_linear" x1="29.9998" y1="10.3125" x2="29.9998" y2="59.0625" gradientUnits="userSpaceOnUse">
<stop stop-color="#5889E9"/>
<stop offset="1" stop-color="#4CD4C9"/>
</linearGradient>
<linearGradient id="paint1_linear" x1="34.6875" y1="14.0625" x2="34.6875" y2="19.6875" gradientUnits="userSpaceOnUse">
<stop stop-color="#5889E9"/>
<stop offset="1" stop-color="#4CD4C9"/>
</linearGradient>
<linearGradient id="paint2_linear" x1="35.5771" y1="21.1875" x2="35.5771" y2="24.1875" gradientUnits="userSpaceOnUse">
<stop stop-color="#5889E9"/>
<stop offset="1" stop-color="#4CD4C9"/>
</linearGradient>
<linearGradient id="paint3_linear" x1="11.25" y1="0.9375" x2="11.25" y2="30.9375" gradientUnits="userSpaceOnUse">
<stop stop-color="#5889E9"/>
<stop offset="1" stop-color="#4CD4C9"/>
</linearGradient>
<linearGradient id="paint4_linear" x1="5.625" y1="16.875" x2="5.625" y2="18.75" gradientUnits="userSpaceOnUse">
<stop stop-color="#5889E9"/>
<stop offset="1" stop-color="#4CD4C9"/>
</linearGradient>
<linearGradient id="paint5_linear" x1="9.37494" y1="16.875" x2="9.37494" y2="18.75" gradientUnits="userSpaceOnUse">
<stop stop-color="#5889E9"/>
<stop offset="1" stop-color="#4CD4C9"/>
</linearGradient>
<linearGradient id="paint6_linear" x1="16.875" y1="7.5" x2="16.875" y2="9.375" gradientUnits="userSpaceOnUse">
<stop stop-color="#5889E9"/>
<stop offset="1" stop-color="#4CD4C9"/>
</linearGradient>
<linearGradient id="paint7_linear" x1="13.125" y1="7.5" x2="13.125" y2="9.375" gradientUnits="userSpaceOnUse">
<stop stop-color="#5889E9"/>
<stop offset="1" stop-color="#4CD4C9"/>
</linearGradient>
</defs>
</svg>
