<svg width="60" height="60" viewBox="0 0 60 60" fill="none" xmlns="http://www.w3.org/2000/svg">
<g id="beach 1">
<g id="Group 2">
<g id="Group">
<g id="Group_2">
<path id="Vector" d="M58.9999 48.9998H20.414L6.70709 35.2928C6.32334 34.8956 5.69035 34.8846 5.2931 35.2683C4.89585 35.6521 4.88485 36.2851 5.2686 36.6823C5.2766 36.6907 5.28485 36.6988 5.2931 36.7068L10.1091 41.5228L4.5001 48.9998H1.00012C0.44787 48.9998 0.00012207 49.4475 0.00012207 49.9998C0.00012207 50.552 0.44787 50.9998 1.00012 50.9998H6.1321L1.16812 58.4447C0.861618 58.9042 0.985618 59.5252 1.44512 59.8317C1.90461 60.1382 2.52561 60.0142 2.83211 59.5547L8.53508 50.9998H21V58.9997C21 59.552 21.4478 59.9997 22 59.9997C22.5523 59.9997 23 59.552 23 58.9997V50.9998H50.4649L56.1649 59.5547C56.4714 60.0142 57.0924 60.1382 57.5519 59.8317C58.0114 59.5252 58.1354 58.9042 57.8289 58.4447L52.8679 50.9998H58.9999C59.5521 50.9998 59.9999 50.552 59.9999 49.9998C59.9999 49.4475 59.5521 48.9998 58.9999 48.9998ZM7.00009 48.9998L11.5371 42.9508L17.586 48.9998H7.00009Z" fill="url(#paint0_linear)"/>
</g>
</g>
<g id="Group_3">
<g id="Group_4">
<path id="Vector_2" d="M55.9999 41.9998H24.414L23 40.5858V20.3999C23.5961 20.7859 24.2899 20.994 25 20.9999C25.8009 20.9954 26.5795 20.7358 27.223 20.2589C27.6879 19.9269 28.3121 19.9269 28.777 20.2589C30.0937 21.2486 31.9062 21.2486 33.223 20.2589C33.6879 19.9269 34.3121 19.9269 34.777 20.2589C36.187 21.3143 38.1441 21.2349 39.464 20.0689C39.807 19.7826 39.9997 19.3547 39.987 18.9079C39.633 10.067 31.771 3 22 3C11.2531 3 4.3231 10.066 4.01111 18.9059C3.99998 19.3536 4.19311 19.7819 4.5361 20.0699C5.22073 20.6632 6.09435 20.9928 7.00009 20.9999C7.80097 20.9954 8.57959 20.7358 9.22308 20.2589C9.68796 19.9269 10.3122 19.9269 10.7771 20.2589C12.0938 21.2486 13.9063 21.2486 15.2231 20.2589C15.6879 19.9269 16.3122 19.9269 16.7771 20.2589C18.0128 21.1954 19.7045 21.2519 21 20.3999V38.5899L13.7071 31.2969C13.3166 30.9065 12.6836 30.9065 12.2931 31.2969L9.29308 34.2969C8.90271 34.6874 8.90271 35.3204 9.29308 35.7109L21.293 47.7108C21.4812 47.8969 21.7354 48.0008 22 47.9998H55.9999C56.5521 47.9998 56.9999 47.5521 56.9999 46.9998V42.9998C56.9999 42.4476 56.5521 41.9998 55.9999 41.9998ZM20.046 18.6419C19.7443 18.8696 19.3779 18.9949 19 18.9999C18.6222 18.9946 18.2559 18.8692 17.954 18.6419C16.7874 17.8001 15.2127 17.8001 14.0461 18.6419C13.4307 19.1201 12.5694 19.1201 11.9541 18.6419C10.7875 17.8001 9.21271 17.8001 8.04609 18.6419C7.74434 18.8696 7.37797 18.9949 7.00009 18.9999C6.65072 18.9961 6.31047 18.8877 6.0231 18.6889C6.4551 10.614 12.9831 4.99999 22 4.99999C30.542 4.99999 37.5 10.99 37.974 18.6919C37.687 18.8889 37.348 18.9961 37 18.9999C36.6221 18.9946 36.2558 18.8692 35.954 18.6419C34.7874 17.7999 33.2126 17.7999 32.046 18.6419C31.4306 19.1201 30.5694 19.1201 29.954 18.6419C28.7874 17.7999 27.2126 17.7999 26.046 18.6419C25.4306 19.1201 24.5694 19.1201 23.954 18.6419C22.7874 17.7999 21.2127 17.7999 20.046 18.6419ZM54.9999 45.9998H22.414L11.4141 34.9999L13.0001 33.4139L21.292 41.7058L23.292 43.7058C23.4797 43.894 23.7344 43.9998 24 43.9998H54.9999V45.9998Z" fill="url(#paint1_linear)"/>
</g>
</g>
<g id="Group_5">
<g id="Group_6">
<path id="Vector_3" d="M50.9999 4.44409C48.4848 4.44684 46.4467 6.48496 46.4439 9.00007C46.4439 11.5163 48.4837 13.5561 50.9999 13.5561C53.5162 13.5561 55.5559 11.5163 55.5559 9.00007C55.5559 6.48383 53.5162 4.44409 50.9999 4.44409ZM50.9999 11.5561C49.5883 11.5561 48.4439 10.4117 48.4439 9.00007C48.4456 7.58908 49.5889 6.44571 50.9999 6.44408C52.4115 6.44408 53.5559 7.58845 53.5559 9.00007C53.5559 10.4117 52.4115 11.5561 50.9999 11.5561Z" fill="url(#paint2_linear)"/>
</g>
</g>
<g id="Group_7">
<g id="Group_8">
<path id="Vector_4" d="M44.7769 8H43C42.4477 8 42 8.44775 42 9C42 9.55224 42.4477 9.99999 43 9.99999H44.7769C45.3292 9.99999 45.7769 9.55224 45.7769 9C45.7769 8.44775 45.3292 8 44.7769 8Z" fill="url(#paint3_linear)"/>
</g>
</g>
<g id="Group_9">
<g id="Group_10">
<path id="Vector_5" d="M47.3079 3.89389L46.0499 2.63589C45.6527 2.25227 45.0196 2.26327 44.6359 2.66052C44.2617 3.04801 44.2617 3.66239 44.6359 4.04988L45.8939 5.30788C46.2912 5.69163 46.9242 5.68063 47.3079 5.28338C47.6822 4.89576 47.6822 4.28138 47.3079 3.89389Z" fill="url(#paint4_linear)"/>
</g>
</g>
<g id="Group_11">
<g id="Group_12">
<path id="Vector_6" d="M50.9999 0C50.4477 0 49.9999 0.447748 49.9999 0.999996V2.77699C49.9999 3.32924 50.4477 3.77699 50.9999 3.77699C51.5522 3.77699 51.9999 3.32924 51.9999 2.77699V0.999996C51.9999 0.447748 51.5522 0 50.9999 0Z" fill="url(#paint5_linear)"/>
</g>
</g>
<g id="Group_13">
<g id="Group_14">
<path id="Vector_7" d="M57.3639 2.6358C56.9734 2.24542 56.3404 2.24542 55.9499 2.6358L54.6919 3.89379C54.2947 4.27754 54.2837 4.91054 54.6674 5.30779C55.0512 5.70503 55.6841 5.71603 56.0814 5.33229C56.0898 5.32429 56.0979 5.31604 56.1059 5.30779L57.3639 4.04979C57.7543 3.65929 57.7543 3.0263 57.3639 2.6358Z" fill="url(#paint6_linear)"/>
</g>
</g>
<g id="Group_15">
<g id="Group_16">
<path id="Vector_8" d="M58.9999 8H57.2229C56.6706 8 56.2229 8.44775 56.2229 9C56.2229 9.55224 56.6706 9.99999 57.2229 9.99999H58.9999C59.5521 9.99999 59.9999 9.55224 59.9999 9C59.9999 8.44775 59.5521 8 58.9999 8Z" fill="url(#paint7_linear)"/>
</g>
</g>
<g id="Group_17">
<g id="Group_18">
<path id="Vector_9" d="M57.3639 13.9499L56.1059 12.692C55.7154 12.3016 55.0824 12.3016 54.6919 12.692C54.3015 13.0824 54.3015 13.7154 54.6919 14.1059L55.9499 15.3639C56.3471 15.7477 56.9801 15.7367 57.3639 15.3394C57.7381 14.9518 57.7381 14.3374 57.3639 13.9499Z" fill="url(#paint8_linear)"/>
</g>
</g>
<g id="Group_19">
<g id="Group_20">
<path id="Vector_10" d="M50.9999 14.2229C50.4477 14.2229 49.9999 14.6706 49.9999 15.2229V16.9999C49.9999 17.5521 50.4477 17.9999 50.9999 17.9999C51.5522 17.9999 51.9999 17.5521 51.9999 16.9999V15.2229C51.9999 14.6706 51.5522 14.2229 50.9999 14.2229Z" fill="url(#paint9_linear)"/>
</g>
</g>
<g id="Group_21">
<g id="Group_22">
<path id="Vector_11" d="M47.2834 12.6918C46.8959 12.3176 46.2816 12.3176 45.8939 12.6918L44.6359 13.9498C44.2387 14.3336 44.2277 14.9666 44.6114 15.3638C44.9952 15.7611 45.6282 15.7721 46.0254 15.3883C46.0338 15.3803 46.0419 15.3721 46.0499 15.3638L47.3079 14.1058C47.6916 13.7086 47.6807 13.0754 47.2834 12.6918Z" fill="url(#paint10_linear)"/>
</g>
</g>
</g>
</g>
<defs>
<linearGradient id="paint0_linear" x1="30" y1="34.9875" x2="30" y2="60" gradientUnits="userSpaceOnUse">
<stop stop-color="#5889E9"/>
<stop offset="1" stop-color="#4CD4C9"/>
</linearGradient>
<linearGradient id="paint1_linear" x1="30.5053" y1="3" x2="30.5053" y2="47.9998" gradientUnits="userSpaceOnUse">
<stop stop-color="#5889E9"/>
<stop offset="1" stop-color="#4CD4C9"/>
</linearGradient>
<linearGradient id="paint2_linear" x1="50.9999" y1="4.44409" x2="50.9999" y2="13.5561" gradientUnits="userSpaceOnUse">
<stop stop-color="#5889E9"/>
<stop offset="1" stop-color="#4CD4C9"/>
</linearGradient>
<linearGradient id="paint3_linear" x1="43.8884" y1="8" x2="43.8884" y2="9.99999" gradientUnits="userSpaceOnUse">
<stop stop-color="#5889E9"/>
<stop offset="1" stop-color="#4CD4C9"/>
</linearGradient>
<linearGradient id="paint4_linear" x1="45.9719" y1="2.35522" x2="45.9719" y2="5.58865" gradientUnits="userSpaceOnUse">
<stop stop-color="#5889E9"/>
<stop offset="1" stop-color="#4CD4C9"/>
</linearGradient>
<linearGradient id="paint5_linear" x1="50.9999" y1="0" x2="50.9999" y2="3.77699" gradientUnits="userSpaceOnUse">
<stop stop-color="#5889E9"/>
<stop offset="1" stop-color="#4CD4C9"/>
</linearGradient>
<linearGradient id="paint6_linear" x1="56.0216" y1="2.34302" x2="56.0216" y2="5.61306" gradientUnits="userSpaceOnUse">
<stop stop-color="#5889E9"/>
<stop offset="1" stop-color="#4CD4C9"/>
</linearGradient>
<linearGradient id="paint7_linear" x1="58.1114" y1="8" x2="58.1114" y2="9.99999" gradientUnits="userSpaceOnUse">
<stop stop-color="#5889E9"/>
<stop offset="1" stop-color="#4CD4C9"/>
</linearGradient>
<linearGradient id="paint8_linear" x1="56.0218" y1="12.3992" x2="56.0218" y2="15.6447" gradientUnits="userSpaceOnUse">
<stop stop-color="#5889E9"/>
<stop offset="1" stop-color="#4CD4C9"/>
</linearGradient>
<linearGradient id="paint9_linear" x1="50.9999" y1="14.2229" x2="50.9999" y2="17.9999" gradientUnits="userSpaceOnUse">
<stop stop-color="#5889E9"/>
<stop offset="1" stop-color="#4CD4C9"/>
</linearGradient>
<linearGradient id="paint10_linear" x1="45.9597" y1="12.4111" x2="45.9597" y2="15.6691" gradientUnits="userSpaceOnUse">
<stop stop-color="#5889E9"/>
<stop offset="1" stop-color="#4CD4C9"/>
</linearGradient>
</defs>
</svg>
