<svg width="60" height="60" viewBox="0 0 60 60" fill="none" xmlns="http://www.w3.org/2000/svg">
<g id="tourist 1">
<g id="Group">
<g id="Group_2">
<g id="Group_3">
<path id="Vector" d="M44.5644 29.0354C36.0536 29.0354 29.1289 35.9602 29.1289 44.471C29.1289 52.9818 36.0536 59.9066 44.5644 59.9066C53.0752 59.9066 60 52.9818 60 44.471C60 35.9602 53.0752 29.0354 44.5644 29.0354ZM31.0583 44.471C31.0583 37.0233 37.1168 30.9648 44.5644 30.9648C48.2516 30.9648 51.5944 32.4525 54.0342 34.8556L41.0837 40.9893L34.95 53.9407C32.5469 51.5009 31.0583 48.1581 31.0583 44.471ZM43.4579 42.0003L50.2544 38.781L47.0351 45.5765L43.4579 42.0003ZM45.671 46.9407L38.8745 50.16L42.0938 43.3644L45.671 46.9407ZM44.5644 57.9771C40.8782 57.9771 37.5345 56.4895 35.0947 54.0864L48.0452 47.9517L54.1798 35.0012C56.583 37.441 58.0706 40.7838 58.0706 44.471C58.0706 51.9186 52.0121 57.9771 44.5644 57.9771Z" fill="url(#paint0_linear)"/>
<path id="Vector_2" d="M44.5644 34.8237C46.054 34.8237 47.4953 35.1652 48.8478 35.8377L49.7074 34.1098C48.0847 33.3033 46.354 32.8943 44.5644 32.8943C38.1809 32.8943 32.9877 38.0874 32.9877 44.471C32.9877 46.2615 33.3968 47.9922 34.2033 49.6139L35.9311 48.7543C35.2587 47.4028 34.9172 45.9615 34.9172 44.471C34.9172 39.1515 39.2449 34.8237 44.5644 34.8237Z" fill="url(#paint1_linear)"/>
<path id="Vector_3" d="M54.9256 39.3281L53.1977 40.1877C53.8702 41.5393 54.2117 42.9806 54.2117 44.4711C54.2117 49.7906 49.8839 54.1183 44.5644 54.1183C43.0749 54.1183 41.6336 53.7768 40.2811 53.1044L39.4215 54.8322C41.0442 55.6387 42.7749 56.0477 44.5644 56.0477C50.948 56.0477 56.1411 50.8546 56.1411 44.4711C56.1411 42.6805 55.7321 40.9498 54.9256 39.3281Z" fill="url(#paint2_linear)"/>
<path id="Vector_4" d="M30.0936 34.8238V30.3861L31.9594 30.8945C32.4784 31.0353 32.9656 31.2611 33.4093 31.563L34.4966 29.9693C33.8753 29.5468 33.1923 29.2303 32.4668 29.0326L26.2347 27.3337V26.1413H24.3052V27.9743C23.847 30.2664 21.8182 31.9296 19.4816 31.9296C17.1451 31.9296 15.1172 30.2674 14.658 27.9743V26.1413H12.7286V27.3337L6.49645 29.0335C6.31701 29.0827 6.14818 29.1551 5.9755 29.2178V25.1766C5.9755 23.5809 7.27401 22.2824 8.86967 22.2824H12.3292L15.341 25.2933C15.8861 25.8403 16.6135 26.1413 17.3872 26.1413H21.577C22.3497 26.1413 23.0771 25.8403 23.6241 25.2933L26.635 22.2824H30.0936C31.6892 22.2824 32.9877 23.5809 32.9877 25.1766V27.106H34.9172V25.1766C34.9172 22.5168 32.7533 20.3529 30.0936 20.3529H28.2278C28.4159 20.0269 28.5751 19.6863 28.7053 19.3332C30.575 19.0679 32.023 17.4723 32.023 15.5293C32.023 14.8231 31.8185 14.17 31.4866 13.5999H36.8466C38.4423 13.5999 39.7408 12.3014 39.7408 10.7057C39.7408 9.11005 38.4423 7.81154 36.8466 7.81154H30.0367C29.5543 3.47703 25.872 0.09375 21.4111 0.09375H17.5522C12.7652 0.09375 8.86967 3.98834 8.86967 8.77626V12.2068C7.72165 12.8763 6.94022 14.1073 6.94022 15.5293C6.94022 17.4723 8.38827 19.0679 10.2589 19.3332C10.3891 19.6854 10.5483 20.0259 10.7364 20.3529H8.86967C6.20992 20.3529 4.04605 22.5168 4.04605 25.1766V30.2934C2.73885 31.3431 1.8378 32.8519 1.59372 34.5595L0 43.5063H27.1994V41.5769H26.2347V29.3335L28.1641 29.8603V34.8238H30.0936ZM30.0936 9.74098H36.8466C37.3782 9.74098 37.8114 10.1732 37.8114 10.7057C37.8114 11.2382 37.3782 11.6704 36.8466 11.6704H30.0936V9.74098ZM29.1289 16.9899V13.8681C29.7029 14.2028 30.0936 14.8183 30.0936 15.5293C30.0936 16.2442 29.698 16.8626 29.1192 17.1954C29.1211 17.1269 29.1289 17.0594 29.1289 16.9899ZM8.86967 15.5293C8.86967 14.8183 9.26038 14.2028 9.83439 13.8681V16.9899C9.83439 17.0594 9.84211 17.1269 9.84404 17.1954C9.2652 16.8626 8.86967 16.2442 8.86967 15.5293ZM27.1994 16.9909C27.1994 18.2788 26.6978 19.4905 25.7871 20.4021L22.2591 23.9292C22.0767 24.1115 21.8336 24.2118 21.576 24.2118H17.3862C17.1287 24.2118 16.8856 24.1115 16.7032 23.9292L13.1762 20.4021C12.2655 19.4895 11.7638 18.2788 11.7638 16.9909V13.5999H27.1994V16.9909ZM16.5875 11.6704V9.74098H22.3758V11.6704H16.5875ZM10.7991 8.77626C10.7991 5.05339 13.8283 2.0232 17.5522 2.0232H21.4111C25.1349 2.0232 28.1641 5.05339 28.1641 8.77626V11.6704H24.3052V9.74098C24.3052 8.67689 23.4399 7.81154 22.3758 7.81154H16.5875C15.5234 7.81154 14.658 8.67689 14.658 9.74098V11.6704H10.7991V8.77626ZM8.86967 41.5769H2.30376L3.49809 34.8662C3.77014 32.9599 5.1468 31.4019 7.00389 30.8954L8.86967 30.3861V41.5769ZM12.7286 41.5769H10.7991V29.8603L12.7286 29.3335V41.5769ZM24.3052 41.5769H14.658V31.8322C15.9102 33.0815 17.6168 33.8591 19.4816 33.8591C21.3445 33.8591 23.0501 33.0825 24.3052 31.8177V41.5769Z" fill="url(#paint3_linear)"/>
</g>
</g>
</g>
</g>
<defs>
<linearGradient id="paint0_linear" x1="44.5644" y1="29.0354" x2="44.5644" y2="59.9066" gradientUnits="userSpaceOnUse">
<stop stop-color="#5889E9"/>
<stop offset="1" stop-color="#4CD4C9"/>
</linearGradient>
<linearGradient id="paint1_linear" x1="41.3476" y1="32.8943" x2="41.3476" y2="49.6139" gradientUnits="userSpaceOnUse">
<stop stop-color="#5889E9"/>
<stop offset="1" stop-color="#4CD4C9"/>
</linearGradient>
<linearGradient id="paint2_linear" x1="47.7813" y1="39.3281" x2="47.7813" y2="56.0477" gradientUnits="userSpaceOnUse">
<stop stop-color="#5889E9"/>
<stop offset="1" stop-color="#4CD4C9"/>
</linearGradient>
<linearGradient id="paint3_linear" x1="19.8704" y1="0.09375" x2="19.8704" y2="43.5063" gradientUnits="userSpaceOnUse">
<stop stop-color="#5889E9"/>
<stop offset="1" stop-color="#4CD4C9"/>
</linearGradient>
</defs>
</svg>
