<svg width="60" height="60" viewBox="0 0 60 60" fill="none" xmlns="http://www.w3.org/2000/svg">
<path d="M59 38H55.0001C54.4481 38 54.0001 38.448 54.0001 38.9999V57.9999H52.0001V35C52.0001 34.448 51.5521 34 51.0001 34H45C44.448 34 44 34.448 44 35V58H42V41C42 40.448 41.552 40 41 40H35C34.4481 40 34.0001 40.448 34.0001 41V58H32V47C32 46.448 31.552 46 31.0001 46H25.0001C24.4481 46 24.0001 46.448 24.0001 47V58H22.0001V53C22.0001 52.448 21.5521 52 21.0001 52H15C14.448 52 14 52.448 14 53V58H6V35.9999C6 35.448 5.552 35 5.00004 35C4.44809 35 4.00008 35.448 4.00008 35.9999V57.9999H1.00008C0.44813 57.9999 0.00012207 58.4479 0.00012207 58.9999C0.00012207 59.5518 0.448013 59.9999 0.999966 59.9999H15C15.552 59.9999 16 59.5519 16 59V53.9999H19.9999V59C19.9999 59.5519 20.4479 59.9999 20.9999 59.9999H24.9998C25.5518 59.9999 25.9998 59.5519 25.9998 59V47.9999H30V59C30 59.5519 30.448 59.9999 31 59.9999H34.9999C35.5519 59.9999 35.9999 59.5519 35.9999 59V41.9999H39.9998V59C39.9998 59.5519 40.4478 59.9999 40.9998 59.9999H45C45.552 59.9999 46 59.5519 46 59V35.9999H49.9999V59C49.9999 59.5519 50.4479 59.9999 50.9999 59.9999H54.9998C55.5518 59.9999 55.9998 59.5519 55.9998 59V39.9999H58.9998C59.5518 39.9999 59.9998 39.5519 59.9998 38.9999C60 38.448 59.552 38 59 38Z" fill="url(#paint0_linear)"/>
<path d="M59 8.00004H40C39.448 8.00004 39 8.44805 39 9C39 9.55195 39.448 9.99996 40 9.99996H58V31.586L30.707 4.29305C30.5109 4.09699 30.2539 4.00008 29.997 4.00008C29.74 4.00008 29.483 4.09711 29.2869 4.29305L2.00004 31.585V9.99996H13.0001C13.552 9.99996 14 9.55195 14 9V5.00004C14 4.44809 13.552 4.00008 13.0001 4.00008H12V2.00004H18V4.00008H17C16.4481 4.00008 16.0001 4.44809 16.0001 5.00004V9C16.0001 9.55195 16.4481 9.99996 17 9.99996H20C20.552 9.99996 21 9.55195 21 9C21 8.44805 20.552 8.00004 20 8.00004H18V6H19C19.5519 6 19.9999 5.55199 19.9999 5.00004V0.999961C19.9999 0.448008 19.5519 0 19 0H11C10.4481 0 10.0001 0.448008 10.0001 0.999961V4.99992C10.0001 5.55188 10.4481 5.99988 11 5.99988H12V7.99992H0.999961C0.735 7.99992 0.48 8.10492 0.292969 8.29289C0.105 8.48004 0 8.73504 0 9L0.00398438 34C0.00398438 34.405 0.247969 34.7689 0.622031 34.924C0.746016 34.975 0.875039 35 1.00406 35C1.26504 35 1.52109 34.8981 1.71105 34.7071L29.997 6.41098L58.2929 34.707C58.4839 34.898 58.7399 34.9999 58.9999 34.9999C59.1289 34.9999 59.2589 34.975 59.3829 34.9239C59.7559 34.7688 59.9999 34.4039 59.9999 33.9998V9C60 8.44805 59.552 8.00004 59 8.00004Z" fill="url(#paint1_linear)"/>
<path d="M34 20.0002C34 17.7942 32.2059 16.0002 30 16.0002C27.7939 16.0002 26 17.7943 26 20.0002C26 22.2061 27.7939 24.0002 30 24.0002C32.206 24.0002 34 22.2061 34 20.0002ZM28 20.0002C28 18.8972 28.8969 18.0002 30 18.0002C31.103 18.0002 32 18.8971 32 20.0002C32 21.1032 31.1031 22.0002 30 22.0002C28.897 22.0001 28 21.1032 28 20.0002Z" fill="url(#paint2_linear)"/>
<path d="M24 35.0001V43.0001C24 43.5521 24.448 44.0001 25 44.0001C25.5519 44.0001 25.9999 43.5521 25.9999 43.0001V36H34V37C34 37.552 34.448 38 34.9999 38C35.5519 38 35.9999 37.552 35.9999 37V35C35.9999 34.448 35.5519 34 34.9999 34H25C24.448 34 24 34.448 24 35.0001Z" fill="url(#paint3_linear)"/>
<path d="M19 34H11C10.4481 34 10.0001 34.448 10.0001 35V46H8.99999C8.44804 46 8.00003 46.448 8.00003 47C8.00003 47.5519 8.44804 48 8.99999 48H21C21.5519 48 22 47.552 22 47.0001C22 46.4481 21.5519 46.0001 21 46.0001H20V35.0001C20 34.448 19.552 34 19 34ZM18 46H12V42H18V46ZM18 40H12V36H18V40Z" fill="url(#paint4_linear)"/>
<defs>
<linearGradient id="paint0_linear" x1="29.9999" y1="34" x2="29.9999" y2="59.9999" gradientUnits="userSpaceOnUse">
<stop stop-color="#4CD4C9"/>
<stop offset="1" stop-color="#5889E9"/>
</linearGradient>
<linearGradient id="paint1_linear" x1="29.9999" y1="0" x2="29.9999" y2="35" gradientUnits="userSpaceOnUse">
<stop stop-color="#4CD4C9"/>
<stop offset="1" stop-color="#5889E9"/>
</linearGradient>
<linearGradient id="paint2_linear" x1="30" y1="16.0002" x2="30" y2="24.0002" gradientUnits="userSpaceOnUse">
<stop stop-color="#4CD4C9"/>
<stop offset="1" stop-color="#5889E9"/>
</linearGradient>
<linearGradient id="paint3_linear" x1="29.9999" y1="34" x2="29.9999" y2="44.0001" gradientUnits="userSpaceOnUse">
<stop stop-color="#4CD4C9"/>
<stop offset="1" stop-color="#5889E9"/>
</linearGradient>
<linearGradient id="paint4_linear" x1="15" y1="34" x2="15" y2="48" gradientUnits="userSpaceOnUse">
<stop stop-color="#4CD4C9"/>
<stop offset="1" stop-color="#5889E9"/>
</linearGradient>
</defs>
</svg>
