<svg width="107" height="45" viewBox="0 0 107 45" fill="none" xmlns="http://www.w3.org/2000/svg">
<g clip-path="url(#clip0)">
<path fill-rule="evenodd" clip-rule="evenodd" d="M31.3239 6.46681H47.6657C49.541 6.46941 51.3744 5.91252 52.9314 4.86738L55.7827 2.96257C56.9626 2.17765 58.354 1.77147 59.771 1.7983C61.1879 1.82513 62.5629 2.2837 63.7123 3.11273L65.6036 4.48102C67.2151 5.6511 69.1562 6.27965 71.1476 6.27616H75.1395V4.48271H71.1476C69.5323 4.48561 67.9577 3.97515 66.6514 3.02499L64.7601 1.65671C63.3124 0.614253 61.5814 0.037872 59.7978 0.00441264C58.0142 -0.0290467 56.2628 0.482008 54.7771 1.46943L51.9258 3.37424C50.6665 4.21955 49.1841 4.67064 47.6674 4.66998H31.3239V6.46681ZM47.6657 10.8738H31.2918V9.07693H47.6657C49.1824 9.0775 50.6648 8.62642 51.9241 7.78119L54.7754 5.87639C56.2613 4.88859 58.013 4.37732 59.797 4.41078C61.5809 4.44424 63.3123 5.02084 64.7601 6.06367L66.6514 7.43195C67.9577 8.3821 69.5323 8.89257 71.1476 8.88966H75.1209V10.6865H71.1476C69.1558 10.689 67.2146 10.0593 65.6036 8.88797L63.7123 7.51969C62.5628 6.69088 61.1878 6.23246 59.771 6.20563C58.3541 6.1788 56.9627 6.58483 55.7827 7.36953L52.9314 9.27434C51.3743 10.3194 49.541 10.8763 47.6657 10.8738ZM31.2918 15.2451H47.6657C49.5383 15.2473 51.3691 14.6916 52.9246 13.6491L55.781 11.7409C56.9613 10.9571 58.3524 10.5514 59.769 10.578C61.1856 10.6045 62.5605 11.0619 63.7106 11.8894L65.6036 13.261C67.2146 14.4323 69.1558 15.062 71.1476 15.0595H75.1209V13.2627H71.1476C69.5328 13.2654 67.9589 12.7549 66.653 11.805L64.7601 10.4333C63.3121 9.39077 61.5807 8.81446 59.7967 8.7813C58.0128 8.74814 56.2611 9.2597 54.7754 10.2477L51.9241 12.1559C50.6645 13 49.182 13.45 47.6657 13.4483H31.2918V15.2451ZM47.6657 19.8901H31.2918V18.0865H47.6657C49.1826 18.0866 50.6653 17.6362 51.9258 16.7924L54.7754 14.8859C56.2618 13.8989 58.0138 13.3885 59.7978 13.4228C61.5817 13.4572 63.3128 14.0347 64.7601 15.0783L66.6514 16.4466C67.9571 17.398 69.532 17.9086 71.1476 17.9043H75.1209V19.7011H71.1476C69.1556 19.7051 67.214 19.0752 65.6036 17.9026L63.714 16.536C62.5643 15.7076 61.1894 15.2495 59.7726 15.2226C58.3559 15.1958 56.9646 15.6016 55.7843 16.3858L52.933 18.294C51.3746 19.3369 49.541 19.8926 47.6657 19.8901ZM50.5052 40.0288L50.4951 40.0195H50.5052V40.0288ZM50.5052 43.7448V40.0288C51.2119 40.6785 52.0366 41.1868 52.9347 41.5262C53.7505 41.8554 54.6196 42.0327 55.4992 42.0492C56.2112 42.0492 56.7589 41.9131 57.1425 41.6409C57.3303 41.5086 57.4816 41.331 57.5822 41.1244C57.6828 40.9179 57.7295 40.6893 57.7178 40.4599C57.7268 40.1932 57.6373 39.9326 57.4664 39.7276C57.2792 39.5171 57.0491 39.3492 56.7915 39.235C56.471 39.0932 56.1384 38.9803 55.7978 38.8975C55.421 38.7997 55.0302 38.6951 54.6252 38.5837C54.1225 38.4578 53.6163 38.3042 53.1068 38.1231C52.612 37.9499 52.1462 37.7031 51.725 37.3909C51.3056 37.0791 50.96 36.6787 50.7127 36.2183C50.4371 35.6667 50.3042 35.0547 50.3263 34.4384C50.3178 33.7819 50.4537 33.1316 50.7245 32.5336C50.9845 31.9678 51.3672 31.467 51.8448 31.0674C52.3546 30.6476 52.9415 30.3312 53.5724 30.1361C54.2821 29.9142 55.0222 29.8049 55.7658 29.8122C57.4968 29.8122 59.004 30.2171 60.2873 31.0269V34.5227C59.6431 33.9611 58.9113 33.5086 58.121 33.1831C57.3798 32.88 56.5868 32.7236 55.786 32.7225C55.0189 32.7225 54.4565 32.8654 54.0988 33.1511C53.9299 33.2794 53.7936 33.4457 53.701 33.6365C53.6083 33.8273 53.562 34.0373 53.5657 34.2494C53.5601 34.4722 53.6384 34.689 53.785 34.8568C53.9482 35.0376 54.1432 35.1868 54.3603 35.2971C54.6293 35.4346 54.9121 35.5432 55.2039 35.6211C55.5245 35.7122 55.8664 35.8061 56.2297 35.9028C56.7606 36.0423 57.305 36.2026 57.8629 36.3837C58.4053 36.5576 58.92 36.8082 59.3915 37.1277C59.8577 37.4412 60.2503 37.8522 60.5421 38.3323C60.8629 38.9108 61.0187 39.5661 60.9926 40.227C61.0001 40.8882 60.8721 41.544 60.6163 42.1538C60.3724 42.7293 60.0043 43.2438 59.5382 43.6604C59.0395 44.0968 58.46 44.431 57.8325 44.644C57.1047 44.8905 56.3401 45.0109 55.5717 45C54.6549 45.0007 53.7413 44.892 52.8503 44.6761C52.0256 44.4875 51.2346 44.1734 50.5052 43.7448ZM31.8857 30.0653H26.5256V44.7183H32.1911C32.9236 44.7269 33.6535 44.628 34.3574 44.4248C34.9562 44.2566 35.515 43.9698 36.0007 43.5812C36.4439 43.2157 36.7981 42.7541 37.0366 42.2315C37.2881 41.6652 37.413 41.0508 37.4027 40.4312C37.4237 39.646 37.1867 38.8755 36.7278 38.2379C36.2392 37.6011 35.5665 37.1299 34.8011 36.8882C35.3156 36.6242 35.7498 36.2268 36.058 35.7376C36.3725 35.2214 36.5323 34.6259 36.5186 34.0217C36.532 33.4451 36.4168 32.8728 36.1812 32.3464C35.9578 31.867 35.6284 31.4447 35.2178 31.1114C34.7791 30.7623 34.2782 30.4995 33.7416 30.337C33.1405 30.1519 32.5146 30.0603 31.8857 30.0653ZM32.9199 35.498C32.5284 35.7814 32.0531 35.9252 31.5702 35.9063H29.603V32.6821H31.5702C32.0531 32.6632 32.5284 32.807 32.9199 33.0904C33.0879 33.2427 33.2222 33.4285 33.3141 33.6358C33.406 33.8432 33.4535 34.0674 33.4535 34.2942C33.4535 34.521 33.406 34.7452 33.3141 34.9526C33.2222 35.1599 33.0879 35.3457 32.9199 35.498ZM33.6218 41.6224C33.2225 41.9295 32.6854 42.083 32.0105 42.083H29.603V38.4404H32.0105C32.6798 38.4404 33.2169 38.5973 33.6218 38.9111C33.8237 39.071 33.9843 39.277 34.09 39.5119C34.1957 39.7468 34.2434 40.0037 34.2292 40.2609C34.2235 40.8615 34.0211 41.3153 33.6218 41.6224ZM8.68889 30.0652L14.572 44.7199H11.277L10.042 41.5582H4.45917L3.22417 44.7199H0L5.90507 30.0652H8.68889ZM5.42254 38.8587H9.1073L7.25142 34.0638L5.42254 38.8587ZM19.4277 30.0652V41.7674H24.5364V44.7199H16.2879V30.0652H19.4277ZM39.7563 30.0652H48.3811V32.9132H42.8961V35.886H47.9002V38.6495H42.8961V41.8754H48.4232V44.7233H39.7563V30.0652ZM61.8413 30.0652H72.7269V32.9958H68.8767V44.7199H65.715V32.9958H61.8345V30.0652H61.8413ZM86.0858 44.7199L80.2027 30.0652H80.1976H77.4138L71.5087 44.7199H74.738L75.973 41.5582H81.5625L82.7975 44.7199H86.0858ZM80.6194 38.8587H76.9363L78.7635 34.0638L80.6194 38.8587ZM84.871 30.0652H95.7566V32.9958H91.9048V44.7199H88.7431V32.9958H84.8626V30.0652H84.871ZM106.308 30.0652H97.6834V44.7233H106.35V41.8754H100.823V38.6495H105.827V35.886H100.823V32.9132H106.308V30.0652Z" fill="white"/>
</g>
<defs>
<clipPath id="clip0">
<rect width="106.349" height="45" fill="white"/>
</clipPath>
</defs>
</svg>
