<svg width="29" height="32" viewBox="0 0 29 32" fill="none" xmlns="http://www.w3.org/2000/svg">
<path fill-rule="evenodd" clip-rule="evenodd" d="M6.98932 8.34352V5.35276H14.5954V0H16.0219V5.35266H22.1068V8.34343H25.9097V27.0946V28.2147L29 30.919L28.0211 32L0.73634 8.12323L1.71527 7.04224L4.70756 9.66078V8.34352H6.98932ZM24.4835 9.74572V26.9667L22.1856 24.9558V20.0676H16.5998L14.2034 17.9705H14.5011V12.082H8.51112V12.9893L6.13406 10.9091V9.74572H8.41582V6.75495H20.6805V8.34352H17.5906V9.74572H24.4835ZM18.2022 21.4699H20.7591V23.7074L18.2022 21.4699ZM12.6009 16.5682L9.93753 14.2375V13.4843H13.0746V16.5682H12.6009ZM6.6254 18.0908H0.000238419V19.5381H6.6254V18.0908ZM0 23.1562H12.5142V24.6035H0V23.1562ZM17.6671 28.2217H0V29.669H17.6671V28.2217ZM14.5482 8.34373H16.0694V9.74593H14.5482V8.34373ZM13.0271 8.34373H11.5058V9.74593H13.0271V8.34373ZM16.1175 17.9705H22.1076V12.082H16.1175V17.9705ZM17.5439 13.4843H20.6811V16.5682H17.5439V13.4843Z" fill="#333333"/>
</svg>
