<svg width="40" height="40" viewBox="0 0 40 40" fill="none" xmlns="http://www.w3.org/2000/svg">
<path d="M3.07797 29.9494C3.16062 29.9834 3.24726 30 3.33328 30C3.50664 30 3.67726 29.9321 3.80461 29.8047L14.6686 18.9414L25.5287 29.8047C25.7187 29.9954 26.0053 30.0527 26.2553 29.9494C26.504 29.846 26.6666 29.6028 26.6666 29.3334V20.6667C26.6666 20.2987 26.368 20 26 20C25.632 20 25.3334 20.2987 25.3334 20.6667V27.7233L15.142 17.5287C14.892 17.2787 14.4454 17.2787 14.1954 17.5287L4.00008 27.724V20H7.33344C7.7014 20 8.00008 19.7014 8.00008 19.3334V18.6668H9.33344V19.3334C9.33344 19.7014 9.63211 20 10.0001 20C10.368 20 10.6667 19.7014 10.6667 19.3334V18C10.6667 17.6321 10.368 17.3334 10.0001 17.3334H7.33336C6.96539 17.3334 6.66672 17.6321 6.66672 18V18.6667H3.33336C2.96539 18.6667 2.66672 18.9653 2.66672 19.3333V29.3333C2.66664 29.6027 2.8293 29.846 3.07797 29.9494Z" fill="white"/>
<path d="M18.7327 13.9953C18.6913 14.616 18.6666 15.2793 18.6666 16C18.6666 19.3393 19.6633 21.3334 21.3333 21.3334C23.4386 21.3334 23.9999 18.8194 23.9999 17.3334C23.9999 16.9654 23.7012 16.6667 23.3333 16.6667C22.9653 16.6667 22.6666 16.9654 22.6666 17.3334C22.6666 17.36 22.6093 20 21.3333 20C20.5606 20 19.9999 18.318 19.9999 16C19.9999 8.22734 22.7279 7.34203 22.8139 7.31734C23.1652 7.23734 23.3912 6.89133 23.3199 6.53602C23.2486 6.17531 22.8999 5.9407 22.5359 6.01336C22.4026 6.04 21.9193 6.16672 21.338 6.66469C21.3387 6.55 21.348 6.43539 21.3787 6.32133C21.4707 5.97734 21.6913 5.69 22 5.51203C22.3087 5.33406 22.668 5.28672 23.0113 5.37867C23.3553 5.47133 23.6434 5.69203 23.8206 6C24.1886 6.63664 23.9699 7.45398 23.3333 7.82133C23.014 8.00602 22.9053 8.41398 23.0893 8.73266C23.2127 8.94602 23.4366 9.06531 23.6673 9.06531C23.7806 9.06531 23.8952 9.03664 23.9999 8.97602C25.2733 8.24 25.7106 6.60602 24.9759 5.33336C24.6199 4.71672 24.0446 4.27539 23.3566 4.0907C22.6673 3.90602 21.9493 4.00141 21.3333 4.35734C20.7166 4.71336 20.2753 5.28867 20.0906 5.97664C19.918 6.62063 19.9999 7.2893 20.3133 7.89797C19.7412 8.82867 19.2066 10.2146 18.9093 12.2759C17.9113 11.0806 17.3333 9.55797 17.3333 7.99992C17.3333 4.32391 20.324 1.33328 23.9999 1.33328C27.6759 1.33328 30.6666 4.32398 30.6666 7.99992C30.6666 11.6759 27.6759 14.6666 23.9999 14.6666C23.2759 14.6666 22.5639 14.5513 21.8846 14.3245C21.5366 14.2085 21.158 14.3966 21.0412 14.7452C20.9239 15.0945 21.1126 15.4719 21.462 15.5886C22.278 15.8612 23.132 15.9999 23.9999 15.9999C28.4112 15.9999 31.9999 12.4113 31.9999 7.99992C32 3.58867 28.4113 0 24 0C19.5887 0 16 3.58867 16 8C16 10.2734 17.0207 12.4827 18.7327 13.9953Z" fill="white"/>
<path d="M39.8047 19.5287L32.8807 12.6047C32.6207 12.3447 32.1987 12.3447 31.938 12.6047C31.678 12.8654 31.678 13.2874 31.938 13.5474L38.6667 20.2761V22.6668H36.276L36 22.3907V20.6668C36 20.2988 35.7013 20.0001 35.3334 20.0001H34.6667V19.3335C34.6667 18.9655 34.368 18.6668 34.0001 18.6668H32.2767L32.0001 18.3902V16.6668C32.0001 16.2989 31.7014 16.0002 31.3334 16.0002H29.6094L29.5447 15.9355C29.2847 15.6755 28.8627 15.6755 28.602 15.9355C28.342 16.1962 28.342 16.6182 28.602 16.8782L28.862 17.1382C28.9867 17.2635 29.1567 17.3335 29.3334 17.3335H30.6667V18.6661C30.6667 18.8428 30.7367 19.0121 30.8614 19.1368L31.528 19.8048C31.6534 19.9301 31.8227 20.0001 32.0001 20.0001H33.3334V20.6668C33.3334 21.0347 33.6321 21.3334 34.0001 21.3334H34.6667V22.6668C34.6667 22.8434 34.7367 23.0134 34.862 23.1381L35.5287 23.8047C35.6534 23.93 35.8234 24 36 24H39.3334C39.7013 24 40 23.7014 40 23.3334V20C40 19.8234 39.93 19.6534 39.8047 19.5287Z" fill="white"/>
<path d="M16.6666 29.3334C16.2987 29.3334 16 29.6321 16 30V35.3334C16 35.7013 16.2987 36 16.6666 36H20.6666C21.0346 36 21.3333 35.7013 21.3333 35.3334V30C21.3333 29.6321 21.0346 29.3334 20.6666 29.3334H16.6666ZM20 34.6667H17.3334V30.6667H20V34.6667Z" fill="white"/>
<path d="M39.3334 38.6667H32V35.9327C33.5193 35.6227 34.6666 34.2767 34.6666 32.6667C34.6666 32.58 34.6287 24 31.3333 24C28.038 24 27.9999 32.58 27.9999 32.6667C27.9999 34.2767 29.1473 35.6227 30.6666 35.9327V38.6667H25.3332V31C25.3332 30.6321 25.0345 30.3334 24.6666 30.3334C24.2986 30.3334 23.9999 30.6321 23.9999 31V38.6667H14.6666V30C14.6666 29.6321 14.368 29.3334 14 29.3334H8.66664C8.29867 29.3334 8 29.6321 8 30V38.6667H5.33336V31C5.33336 30.6321 5.03469 30.3334 4.66672 30.3334C4.29875 30.3334 4 30.6321 4 31V38.6667H0.666641C0.298672 38.6667 0 38.9653 0 39.3333C0 39.7013 0.298672 40 0.666641 40H39.3333C39.7013 40 39.9999 39.7014 39.9999 39.3334C39.9999 38.9654 39.7013 38.6667 39.3334 38.6667ZM13.3334 34H12.6667C12.2988 34 12.0001 34.2987 12.0001 34.6667C12.0001 35.0346 12.2988 35.3333 12.6667 35.3333H13.3334V38.6667H9.33336V30.6667H13.3334V34ZM29.3334 32.6667C29.3334 29.3453 30.2254 25.3333 31.3334 25.3333C32.4413 25.3333 33.3334 29.3453 33.3334 32.6667C33.3334 33.7693 32.436 34.6667 31.3334 34.6667C30.2307 34.6667 29.3334 33.7693 29.3334 32.6667Z" fill="white"/>
</svg>
