<svg width="40" height="40" viewBox="0 0 40 40" fill="none" xmlns="http://www.w3.org/2000/svg">
<g clip-path="url(#clip0)">
<path d="M18.5354 13.9953C18.4945 14.616 18.4701 15.2793 18.4701 16C18.4701 19.3393 19.4563 21.3334 21.1087 21.3334C23.1918 21.3334 23.7473 18.8194 23.7473 17.3334C23.7473 16.9654 23.4517 16.6667 23.0876 16.6667C22.7235 16.6667 22.428 16.9654 22.428 17.3334C22.428 17.36 22.3713 20 21.1087 20C20.3442 20 19.7894 18.318 19.7894 16C19.7894 8.22734 22.4886 7.34203 22.5737 7.31734C22.9214 7.23734 23.145 6.89133 23.0744 6.53602C23.0038 6.17531 22.6581 5.9407 22.2987 6.01336C22.1667 6.04 21.6885 6.16672 21.1133 6.66469C21.114 6.55 21.1232 6.43539 21.1536 6.32133C21.2447 5.97734 21.463 5.69 21.7684 5.51203C22.0731 5.33406 22.4293 5.28672 22.7691 5.37867C23.1094 5.47133 23.3944 5.69203 23.5698 6C23.9339 6.63664 23.7176 7.45398 23.0876 7.82133C22.7717 8.00602 22.6642 8.41398 22.8462 8.73266C22.9683 8.94602 23.1899 9.06531 23.4181 9.06531C23.5303 9.06531 23.6437 9.03664 23.7473 8.97602C25.0072 8.24 25.4399 6.60602 24.713 5.33336C24.3607 4.71672 23.7915 4.27539 23.1107 4.0907C22.4287 3.90602 21.7182 4.00141 21.1087 4.35734C20.4985 4.71336 20.0619 5.28867 19.8791 5.97664C19.7083 6.62063 19.7894 7.2893 20.0994 7.89797C19.5334 8.82867 19.0044 10.2146 18.7102 12.2759C17.7228 11.0806 17.1508 9.55797 17.1508 7.99992C17.1508 4.32391 20.11 1.33328 23.7473 1.33328C27.3845 1.33328 30.3437 4.32398 30.3437 7.99992C30.3437 11.6759 27.3845 14.6666 23.7473 14.6666C23.0309 14.6666 22.3264 14.5513 21.6542 14.3245C21.3092 14.2085 20.9345 14.3966 20.8197 14.7452C20.7036 15.0945 20.8903 15.4719 21.236 15.5886C22.0434 15.8612 22.8884 15.9999 23.7473 15.9999C28.1121 15.9999 31.663 12.4113 31.663 7.99992C31.6631 3.58867 28.1122 0 23.7473 0C19.3824 0 15.8315 3.58867 15.8315 8C15.8315 10.2734 16.8415 12.4827 18.5354 13.9953Z" fill="white"/>
<path d="M39.3857 19.5287L32.5346 12.6047C32.2773 12.3447 31.8598 12.3447 31.6019 12.6047C31.3446 12.8654 31.3446 13.2874 31.6019 13.5474L38.2597 20.2761V22.6668H35.8942L35.6211 22.3907V20.6668C35.6211 20.2988 35.3255 20.0001 34.9615 20.0001H34.3018V19.3335C34.3018 18.9655 34.0063 18.6668 33.6422 18.6668H31.937L31.6633 18.3902V16.6668C31.6633 16.2989 31.3677 16.0002 31.0036 16.0002H29.2977L29.2337 15.9355C28.9765 15.6755 28.5589 15.6755 28.301 15.9355C28.0437 16.1962 28.0437 16.6182 28.301 16.8782L28.5582 17.1382C28.6816 17.2635 28.8498 17.3335 29.0246 17.3335H30.3439V18.6661C30.3439 18.8428 30.4132 19.0121 30.5366 19.1368L31.1962 19.8048C31.3202 19.9301 31.4878 20.0001 31.6633 20.0001H32.9826V20.6668C32.9826 21.0347 33.2781 21.3334 33.6422 21.3334H34.3018V22.6668C34.3018 22.8434 34.3711 23.0134 34.4951 23.1381L35.1547 23.8047C35.2781 23.93 35.4463 24 35.6211 24H38.9193C39.2834 24 39.579 23.7014 39.579 23.3334V20C39.579 19.8234 39.5097 19.6534 39.3857 19.5287Z" fill="white"/>
<path d="M3.95789 11.3334C3.95789 11.7013 4.25341 12 4.61751 12H5.27713V16H4.61751C4.25341 16 3.95789 16.2987 3.95789 16.6667C3.95789 17.0346 4.25341 17.3333 4.61751 17.3333H5.27713V21.3333H4.61751C4.25341 21.3333 3.95789 21.632 3.95789 21.9999C3.95789 22.3679 4.25341 22.6666 4.61751 22.6666H5.27713V26.6666H4.61751C4.25341 26.6666 3.95789 26.9652 3.95789 27.3332C3.95789 27.7012 4.25341 27.9999 4.61751 27.9999H5.27713V31.9999H4.61751C4.25341 31.9999 3.95789 32.2985 3.95789 32.6665C3.95789 33.0345 4.25341 33.3331 4.61751 33.3331H5.27713V36.6665C5.27713 37.0345 5.57266 37.3331 5.93676 37.3331C6.30085 37.3331 6.59638 37.0345 6.59638 36.6665V33.3331H9.23495V36.6665C9.23495 37.0345 9.53048 37.3331 9.89457 37.3331C10.2587 37.3331 10.5542 37.0345 10.5542 36.6665V33.3331H13.1928V36.6665C13.1928 37.0345 13.4883 37.3331 13.8524 37.3331C14.2165 37.3331 14.512 37.0345 14.512 36.6665V33.3331H17.1506V36.6665C17.1506 37.0345 17.4461 37.3331 17.8102 37.3331C18.1743 37.3331 18.4698 37.0345 18.4698 36.6665V33.3331H19.1294C19.4935 33.3331 19.7891 33.0345 19.7891 32.6665C19.7891 32.2985 19.4935 31.9999 19.1294 31.9999H18.4698V27.9999H19.1294C19.4935 27.9999 19.7891 27.7012 19.7891 27.3332C19.7891 26.9652 19.4935 26.6666 19.1294 26.6666H18.4698V22.6666C18.8339 22.6666 19.1294 22.3679 19.1294 21.9999C19.1294 21.632 18.8339 21.3333 18.4698 21.3333C18.4698 20.9653 18.1743 20.6667 17.8102 20.6667C17.4461 20.6667 17.1506 20.9653 17.1506 21.3333H14.512V17.3333H16.491C16.8551 17.3333 17.1506 17.0346 17.1506 16.6667C17.1506 16.2987 16.8551 16 16.491 16H14.512V12H14.8421C15.2062 12 15.5017 11.7013 15.5017 11.3334C15.5017 10.9654 15.2062 10.6667 14.8421 10.6667H4.61751C4.25341 10.6667 3.95789 10.9653 3.95789 11.3334ZM14.5122 22.6667H17.1508V26.6667H14.5122V22.6667ZM14.5122 28H17.1508V32H14.5122V28ZM10.5543 12H13.1929V16H10.5543V12ZM10.5543 17.3334H13.1929V21.3334H10.5543V17.3334ZM10.5543 22.6667H13.1929V26.6667H10.5543V22.6667ZM10.5543 28H13.1929V32H10.5543V28ZM6.59646 12H9.23503V16H6.59646V12ZM6.59646 17.3334H9.23503V21.3334H6.59646V17.3334ZM6.59646 22.6667H9.23503V26.6667H6.59646V22.6667ZM6.59646 28H9.23503V32H6.59646V28Z" fill="white"/>
<path d="M13.8526 9.33337C14.2167 9.33337 14.5122 9.0347 14.5122 8.66673C14.5122 8.29876 14.2167 8.00008 13.8526 8.00008H9.89473C9.53064 8.00008 9.23511 8.29876 9.23511 8.66673C9.23511 9.0347 9.53064 9.33337 9.89473 9.33337H13.8526Z" fill="white"/>
<path d="M38.9193 38.6666H29.0246V35.9327C30.5279 35.6227 31.6632 34.2766 31.6632 32.6666C31.6632 32.58 31.6256 24 28.3649 24C25.1042 24 25.0666 32.58 25.0666 32.6666C25.0666 34.2766 26.2019 35.6227 27.7052 35.9327V38.6666H22.428V23.3334C22.428 22.9654 22.1324 22.6667 21.7683 22.6667C21.4042 22.6667 21.1087 22.9654 21.1087 23.3334V38.6667H2.63857V9.33336H7.25609C7.62018 9.33336 7.91571 9.03469 7.91571 8.66672V6.66672H13.8526C14.2166 6.66672 14.5122 6.36805 14.5122 6.00008C14.5122 5.63211 14.2166 5.33344 13.8526 5.33344H7.25616C6.89207 5.33344 6.59654 5.63211 6.59654 6.00008V8.00008H1.97895C1.61485 8.00008 1.31932 8.29875 1.31932 8.66672V38.6667H0.659623C0.295528 38.6667 0 38.9654 0 39.3334C0 39.7013 0.295528 40 0.659623 40H38.9192C39.2833 40 39.5789 39.7013 39.5789 39.3334C39.5789 38.9654 39.2834 38.6666 38.9193 38.6666ZM26.3859 32.6666C26.3859 29.3453 27.2686 25.3333 28.3649 25.3333C29.4612 25.3333 30.3438 29.3453 30.3438 32.6666C30.3438 33.7693 29.4559 34.6666 28.3649 34.6666C27.2738 34.6666 26.3859 33.7693 26.3859 32.6666Z" fill="white"/>
</g>
<defs>
<clipPath id="clip0">
<rect width="39.5789" height="40" fill="white"/>
</clipPath>
</defs>
</svg>
