<svg width="40" height="40" viewBox="0 0 40 40" fill="none" xmlns="http://www.w3.org/2000/svg">
<g clip-path="url(#clip0)">
<path d="M9.80471 13.1382L21.3333 1.60955L32.862 13.1382C32.9867 13.2635 33.1559 13.3335 33.3333 13.3335H35.3333C35.702 13.3335 35.9999 13.0348 35.9999 12.6668V2.00017C35.9999 1.6322 35.702 1.33353 35.3333 1.33353H31.9999V0.666815C31.9999 0.298848 31.702 0.000177157 31.3333 0.000177157H28.6667C28.298 0.000177157 28 0.298848 28 0.666815V1.33345H26C25.6314 1.33345 25.3334 1.63212 25.3334 2.00009C25.3334 2.36806 25.6314 2.66673 26 2.66673H28.6667C29.0353 2.66673 29.3333 2.36806 29.3333 2.00009V1.33345H30.6667V2.00009C30.6667 2.36806 30.9646 2.66673 31.3333 2.66673H34.6666V12.0001H33.6093L21.8047 0.195411C21.544 -0.0652132 21.1226 -0.0652132 20.862 0.195411L9.05737 12.0001H8.00003V2.66681H16.6666C17.0346 2.66681 17.3333 2.36814 17.3333 2.00017C17.3333 1.6322 17.0346 1.33353 16.6666 1.33353H7.33339C6.96543 1.33353 6.66676 1.6322 6.66676 2.00017V12.6668C6.66676 13.0347 6.96543 13.3334 7.33339 13.3334H9.33339C9.51003 13.3335 9.68003 13.2635 9.80471 13.1382Z" fill="white"/>
<path d="M18.6666 8.00016V11.3335C18.6666 11.7015 18.9653 12.0001 19.3333 12.0001H23.3332C23.7019 12.0001 23.9999 11.7015 23.9999 11.3335V8.00016C23.9999 6.52947 22.8039 5.33353 21.3332 5.33353C19.8626 5.33353 18.6666 6.52955 18.6666 8.00016ZM22.6666 10.6668H20V9.33344H22.6666V10.6668ZM22.6666 8.00016H20C20 7.26485 20.5979 6.66681 21.3333 6.66681C22.0686 6.66681 22.6666 7.26485 22.6666 8.00016Z" fill="white"/>
<path d="M3.33339 24.0001C0.0380925 24.0001 4.57764e-05 32.5801 4.57764e-05 32.6667C4.57764e-05 34.2767 1.14739 35.6227 2.66668 35.9327V39.3334C2.66668 39.7014 2.96535 40.0001 3.33331 40.0001C3.70128 40.0001 3.99995 39.7014 3.99995 39.3334V35.9327C5.51924 35.6227 6.66658 34.2767 6.66658 32.6667C6.66666 32.5801 6.62869 24.0001 3.33339 24.0001ZM3.33339 34.6667C2.23074 34.6667 1.3334 33.7694 1.3334 32.6667C1.3334 29.3454 2.22543 25.3334 3.33339 25.3334C4.44136 25.3334 5.33338 29.3454 5.33338 32.6667C5.33338 33.7695 4.43604 34.6667 3.33339 34.6667Z" fill="white"/>
<path d="M23.3333 24C23.702 24 23.9999 23.7014 23.9999 23.3334V18.0001C23.9999 17.6321 23.702 17.3334 23.3333 17.3334H19.3333C18.9654 17.3334 18.6667 17.6321 18.6667 18.0001V23.3334C18.6667 23.7014 18.9654 24 19.3333 24H23.3333ZM20 18.6667H22.6666V20.0001H20V18.6667ZM20 21.3334H22.6666V22.6668H20V21.3334Z" fill="white"/>
<path d="M31.9999 27.3335C31.9999 26.9655 31.702 26.6668 31.3333 26.6668H8.66668C8.29872 26.6668 8.00005 26.9655 8.00005 27.3335V39.3334C8.00005 39.7014 8.29872 40 8.66668 40C9.03465 40 9.33332 39.7014 9.33332 39.3334V28.0001H31.3332C31.702 28.0001 31.9999 27.7014 31.9999 27.3335Z" fill="white"/>
<path d="M30.6666 30.0001C30.6666 29.6321 30.3686 29.3335 29.9999 29.3335H19.3333C18.9654 29.3335 18.6667 29.6321 18.6667 30.0001V35.3334C18.6667 35.7014 18.9654 36.0001 19.3333 36.0001H29.9999C30.3686 36.0001 30.6666 35.7014 30.6666 35.3334V30.0001ZM23.9999 34.6667H20V30.6668H23.9999V34.6667ZM29.3333 34.6667H25.3333V30.6668H29.3333V34.6667Z" fill="white"/>
<path d="M37.9999 36.0001C37.8846 36.0001 37.7699 36.0101 37.6573 36.0301C37.198 35.2014 36.3213 34.6667 35.3333 34.6667C35.1033 34.6667 34.8806 34.698 34.6667 34.7533V15.3335C34.6667 14.9655 34.3687 14.6669 34 14.6669H8.66668C8.29872 14.6669 8.00005 14.9655 8.00005 15.3335V24.6668C8.00005 25.0348 8.29872 25.3335 8.66668 25.3335C9.03465 25.3335 9.33332 25.0348 9.33332 24.6668V16.0001H33.3332V35.5774C33.2112 35.7167 33.0999 35.8654 33.0092 36.0301C32.8966 36.0101 32.7819 36.0001 32.6666 36.0001C31.5639 36.0001 30.6666 36.8974 30.6666 38C30.6666 39.1027 31.5639 40 32.6666 40H37.9999C39.1026 40 39.9999 39.1027 39.9999 38C39.9999 36.8974 39.1026 36.0001 37.9999 36.0001ZM37.9999 38.6667H32.6666C32.2986 38.6667 32 38.3674 32 38C32 37.6327 32.2986 37.3334 32.6666 37.3334C32.7939 37.3334 32.9159 37.37 33.0279 37.4421C33.21 37.56 33.4386 37.5808 33.6399 37.5C33.8413 37.418 33.9892 37.2434 34.0392 37.0321C34.1799 36.4247 34.7113 36.0001 35.3332 36.0001C35.9553 36.0001 36.4866 36.4247 36.6272 37.0321C36.6772 37.2434 36.8252 37.4181 37.0265 37.5C37.2278 37.5808 37.4565 37.56 37.6385 37.4421C38.0725 37.1621 38.6665 37.5054 38.6665 38C38.6666 38.3674 38.3679 38.6667 37.9999 38.6667Z" fill="white"/>
<path d="M28.6666 38.6667H18.6667V38.0001C18.6667 37.6321 18.368 37.3334 18 37.3334H17.3334V30.0001C17.3334 29.6321 17.0347 29.3335 16.6667 29.3335H12.6668C12.2988 29.3335 12.0001 29.6321 12.0001 30.0001V37.3334H11.3335C10.9655 37.3334 10.6668 37.6321 10.6668 38.0001C10.6668 38.368 10.9655 38.6667 11.3335 38.6667H17.3335V39.3334C17.3335 39.7013 17.6321 40 18.0001 40H28.6667C29.0354 40 29.3333 39.7013 29.3333 39.3334C29.3333 38.9654 29.0353 38.6667 28.6666 38.6667ZM16 33.3335H15.3334C14.9654 33.3335 14.6667 33.6321 14.6667 34.0001C14.6667 34.3681 14.9654 34.6667 15.3334 34.6667H16V37.3334H13.3334V30.6668H16V33.3335Z" fill="white"/>
<path d="M29.9999 24C30.3686 24 30.6666 23.7014 30.6666 23.3334V18.0001C30.6666 17.6321 30.3686 17.3334 29.9999 17.3334H26C25.6313 17.3334 25.3333 17.6321 25.3333 18.0001V23.3334C25.3333 23.7014 25.6313 24 26 24H29.9999ZM26.6666 18.6667H29.3332V20.0001H26.6666V18.6667ZM26.6666 21.3334H29.3332V22.6668H26.6666V21.3334Z" fill="white"/>
<path d="M16.6666 24C17.0346 24 17.3333 23.7014 17.3333 23.3334V18.0001C17.3333 17.6321 17.0346 17.3334 16.6666 17.3334H12.6666C12.2987 17.3334 12 17.6321 12 18.0001V23.3334C12 23.7014 12.2987 24 12.6666 24H16.6666ZM13.3334 18.6667H16V20.0001H13.3334V18.6667ZM13.3334 21.3334H16V22.6668H13.3334V21.3334Z" fill="white"/>
</g>
<defs>
<clipPath id="clip0">
<rect width="40" height="40" fill="white"/>
</clipPath>
</defs>
</svg>
