<svg width="40" height="40" viewBox="0 0 40 40" fill="none" xmlns="http://www.w3.org/2000/svg">
<g clip-path="url(#clip0)">
<path d="M25.0667 36.6667C25.0667 36.2987 24.7719 36 24.4071 36H22.4281V27.3334C22.4281 26.9654 22.1333 26.6667 21.7685 26.6667H17.8106C17.4458 26.6667 17.151 26.9654 17.151 27.3334V36H15.172C14.8072 36 14.5124 36.2987 14.5124 36.6667V38.6667H11.2141C10.8493 38.6667 10.5545 38.9653 10.5545 39.3333C10.5545 39.7013 10.8493 39.9999 11.2141 39.9999H15.172C15.5368 39.9999 15.8316 39.7013 15.8316 39.3333V37.3333H24.4071C24.7718 37.3334 25.0667 37.0347 25.0667 36.6667ZM21.1088 31.3334H20.4492C20.0844 31.3334 19.7895 31.632 19.7895 32C19.7895 32.368 20.0844 32.6667 20.4492 32.6667H21.1088V36H18.4702V28H21.1088V31.3334Z" fill="white"/>
<path d="M27.7053 32.6666C27.7053 33.0346 28.0001 33.3333 28.3649 33.3333H32.3228C32.6876 33.3333 32.9824 33.0346 32.9824 32.6666V27.3333C32.9824 26.9653 32.6876 26.6666 32.3228 26.6666H28.3649C28.0001 26.6666 27.7053 26.9653 27.7053 27.3333V32.6666ZM29.0246 28H31.6632V29.3334H29.0246V28ZM29.0246 30.6666H31.6632V32H29.0246V30.6666Z" fill="white"/>
<path d="M38.2597 36.1227V7.33336C38.2597 6.96539 37.9648 6.66672 37.6 6.66672C37.2352 6.66672 36.9404 6.96539 36.9404 7.33336V35.5773C36.4542 35.014 35.7451 34.6666 34.9615 34.6666C33.9839 34.6666 33.1164 35.2013 32.6619 36.03C32.5505 36.01 32.437 36 32.3229 36C31.2318 36 30.3439 36.8973 30.3439 38C30.3439 39.1027 31.2318 40 32.3229 40H37.6C38.6911 40 39.579 39.1027 39.579 38C39.579 37.132 39.0256 36.3993 38.2597 36.1227ZM37.6 38.6666H32.3228C31.9587 38.6666 31.6632 38.3673 31.6632 38C31.6632 37.6327 31.9587 37.3334 32.3228 37.3334C32.4488 37.3334 32.5695 37.37 32.6803 37.442C32.8604 37.56 33.0867 37.5807 33.2859 37.4994C33.4851 37.418 33.6315 37.2434 33.681 37.032C33.8202 36.4247 34.346 36 34.9614 36C35.5769 36 36.1026 36.4247 36.2417 37.032C36.2912 37.2434 36.4376 37.418 36.6368 37.4994C36.836 37.5807 37.0616 37.56 37.2424 37.442C37.6718 37.162 38.2596 37.5054 38.2596 38C38.2597 38.3673 37.9641 38.6666 37.6 38.6666Z" fill="white"/>
<path d="M38.9193 1.33336H33.6421C33.6421 0.965391 33.3473 0.666719 32.9825 0.666719C32.9825 0.29875 32.6876 7.8125e-05 32.3229 7.8125e-05H29.6842C29.3194 7.8125e-05 29.0246 0.29875 29.0246 0.666719V1.33336H27.7053V0.666641C27.7053 0.298672 27.4104 0 27.0456 0H24.4077C24.0429 0 23.7481 0.298672 23.7481 0.666641V1.33328H10.5544V0.666641C10.5544 0.298672 10.2595 0 9.89474 0H7.25617C6.89137 0 6.59654 0.298672 6.59654 0.666641V1.33328H0.659701C0.294832 1.33336 0 1.63203 0 2C0 2.36797 0.294832 2.66664 0.659623 2.66664H7.25609C7.62088 2.66664 7.91571 2.36797 7.91571 2V1.33336H9.23504V2C9.23504 2.36797 9.52987 2.66664 9.89466 2.66664H24.4076C24.7724 2.66664 25.0672 2.36797 25.0672 2V1.33336H26.3859V2C26.3859 2.36797 26.6807 2.66664 27.0455 2.66664H29.6842C30.049 2.66664 30.3438 2.36797 30.3438 2V1.33336H31.0035C31.0035 1.70133 31.2983 2 31.6631 2C31.6631 2.36797 31.9579 2.66664 32.3227 2.66664H38.2595V4H1.97895C1.61416 4 1.31932 4.29867 1.31932 4.66664V36.1227C0.553409 36.3993 0 37.132 0 38C0 39.1027 0.887898 40 1.97895 40H7.25617C8.34721 40 9.23511 39.1027 9.23511 38C9.23511 36.8973 8.34721 36 7.25617 36C7.14207 36 7.02859 36.01 6.91712 36.03C6.46265 35.2013 5.59516 34.6666 4.6176 34.6666C3.8339 34.6666 3.1248 35.014 2.63865 35.5773V5.33336H38.9193C39.2841 5.33336 39.5789 5.03469 39.5789 4.66672V2C39.5789 1.63203 39.2841 1.33336 38.9193 1.33336ZM2.94206 37.4994C3.14127 37.418 3.28768 37.2434 3.33723 37.032C3.47638 36.4247 4.00219 36 4.6176 36C5.233 36 5.75881 36.4247 5.89796 37.032C5.94743 37.2434 6.09384 37.418 6.29313 37.4994C6.49234 37.5807 6.7186 37.56 6.89872 37.442C7.32945 37.162 7.91587 37.5054 7.91587 38C7.91587 38.3673 7.62034 38.6666 7.25624 38.6666H1.97895C1.61485 38.6666 1.31932 38.3673 1.31932 38C1.31932 37.6327 1.61485 37.3334 1.97895 37.3334C2.10495 37.3334 2.22562 37.37 2.33647 37.442C2.51659 37.56 2.74285 37.5807 2.94206 37.4994Z" fill="white"/>
<path d="M6.59647 23.3334C6.59647 23.7014 6.8913 24 7.25609 24H11.214C11.5788 24 11.8736 23.7014 11.8736 23.3334V18C11.8736 17.6321 11.5788 17.3334 11.214 17.3334H7.25609C6.8913 17.3334 6.59647 17.6321 6.59647 18V23.3334ZM7.91579 18.6667H10.5544V20H7.91579V18.6667ZM7.91579 21.3334H10.5544V22.6668H7.91579V21.3334Z" fill="white"/>
<path d="M17.8106 14.6667H21.7685C22.1332 14.6667 22.4281 14.368 22.4281 14V8.66667C22.4281 8.2987 22.1332 8.00003 21.7685 8.00003H17.8106C17.4458 8.00003 17.1509 8.2987 17.1509 8.66667V14C17.1509 14.368 17.4458 14.6667 17.8106 14.6667ZM18.4702 9.33339H21.1088V10.6667H18.4702V9.33339ZM18.4702 12H21.1088V13.3334H18.4702V12Z" fill="white"/>
<path d="M28.3649 38.6667H17.8106C17.4458 38.6667 17.1509 38.9654 17.1509 39.3333C17.1509 39.7013 17.4458 40 17.8106 40H28.3649C28.7297 40 29.0245 39.7013 29.0245 39.3333C29.0246 38.9654 28.7297 38.6667 28.3649 38.6667Z" fill="white"/>
<path d="M27.7053 23.3334C27.7053 23.7014 28.0001 24 28.3649 24H32.3228C32.6876 24 32.9824 23.7014 32.9824 23.3334V18C32.9824 17.6321 32.6876 17.3334 32.3228 17.3334H28.3649C28.0001 17.3334 27.7053 17.6321 27.7053 18V23.3334ZM29.0246 18.6667H31.6632V20H29.0246V18.6667ZM29.0246 21.3334H31.6632V22.6668H29.0246V21.3334Z" fill="white"/>
<path d="M7.25618 14.6667H11.2141C11.5789 14.6667 11.8737 14.368 11.8737 14V8.66667C11.8737 8.2987 11.5789 8.00003 11.2141 8.00003H7.25618C6.89139 8.00003 6.59656 8.2987 6.59656 8.66667V14C6.59648 14.368 6.89139 14.6667 7.25618 14.6667ZM7.9158 9.33339H10.5544V10.6667H7.9158V9.33339ZM7.9158 12H10.5544V13.3334H7.9158V12Z" fill="white"/>
<path d="M6.59647 32.6666C6.59647 33.0346 6.8913 33.3333 7.25609 33.3333H11.214C11.5788 33.3333 11.8736 33.0346 11.8736 32.6666V27.3333C11.8736 26.9653 11.5788 26.6666 11.214 26.6666H7.25609C6.8913 26.6666 6.59647 26.9653 6.59647 27.3333V32.6666ZM7.91579 28H10.5544V29.3334H7.91579V28ZM7.91579 30.6666H10.5544V32H7.91579V30.6666Z" fill="white"/>
<path d="M28.3649 14.6667H32.3228C32.6876 14.6667 32.9824 14.368 32.9824 14V8.66667C32.9824 8.2987 32.6876 8.00003 32.3228 8.00003H28.3649C28.0001 8.00003 27.7053 8.2987 27.7053 8.66667V14C27.7053 14.368 28.0001 14.6667 28.3649 14.6667ZM29.0246 9.33339H31.6632V10.6667H29.0246V9.33339ZM29.0246 12H31.6632V13.3334H29.0246V12Z" fill="white"/>
<path d="M17.1509 23.3334C17.1509 23.7014 17.4458 24 17.8106 24H21.7685C22.1332 24 22.4281 23.7014 22.4281 23.3334V18C22.4281 17.6321 22.1332 17.3334 21.7685 17.3334H17.8106C17.4458 17.3334 17.1509 17.6321 17.1509 18V23.3334ZM18.4702 18.6667H21.1088V20H18.4702V18.6667ZM18.4702 21.3334H21.1088V22.6668H18.4702V21.3334Z" fill="white"/>
</g>
<defs>
<clipPath id="clip0">
<rect width="39.5789" height="40" fill="white"/>
</clipPath>
</defs>
</svg>
