<svg width="577" height="513" viewBox="0 0 577 513" fill="none" xmlns="http://www.w3.org/2000/svg">
<g clip-path="url(#clip0)">
<path d="M505.344 320.823H212.199L218.744 352.823H487.162C502.563 352.823 513.978 367.124 510.565 382.142L505.048 406.418C523.739 415.491 536.627 434.651 536.627 456.823C536.627 488.025 511.108 513.267 479.803 512.817C449.98 512.388 425.453 488.186 424.648 458.37C424.208 442.083 430.733 427.321 441.451 416.822H231.803C242.18 426.988 248.627 441.149 248.627 456.823C248.627 488.636 222.099 514.254 189.957 512.761C161.417 511.436 138.206 488.376 136.706 459.844C135.548 437.81 147.142 418.389 164.757 408.258L94.51 64.823H24.627C11.372 64.823 0.626953 54.078 0.626953 40.823V24.823C0.626953 11.568 11.372 0.822998 24.627 0.822998H127.156C138.557 0.822998 148.384 8.844 150.669 20.013L159.835 64.823H552.617C568.018 64.823 579.433 79.124 576.02 94.142L528.747 302.142C526.264 313.069 516.55 320.823 505.344 320.823ZM403.656 192.823H360.627V132.823C360.627 126.196 355.254 120.823 348.627 120.823H324.627C318 120.823 312.627 126.196 312.627 132.823V192.823H269.598C258.907 192.823 253.553 205.749 261.113 213.308L328.142 280.337C332.828 285.023 340.426 285.023 345.113 280.337L412.142 213.308C419.701 205.749 414.347 192.823 403.656 192.823Z" fill="#8A2529"/>
</g>
<defs>
<clipPath id="clip0">
<rect width="576" height="512" fill="white" transform="translate(0.626953 0.822998)"/>
</clipPath>
</defs>
</svg>
