<svg width="512" height="512" viewBox="0 0 512 512" fill="none" xmlns="http://www.w3.org/2000/svg">
<path d="M256 8C119.043 8 8 119.083 8 256C8 392.997 119.043 504 256 504C392.957 504 504 392.997 504 256C504 119.083 392.957 8 256 8ZM256 456C145.468 456 56 366.569 56 256C56 145.505 145.472 56 256 56C366.491 56 456 145.471 456 256C456 366.53 366.569 456 256 456ZM363.244 200.8C363.244 267.852 290.823 268.884 290.823 293.663V300C290.823 306.627 285.45 312 278.823 312H233.176C226.549 312 221.176 306.627 221.176 300V291.341C221.176 255.596 248.276 241.307 268.755 229.825C286.316 219.98 297.079 213.284 297.079 200.246C297.079 183 275.08 171.553 257.295 171.553C234.106 171.553 223.401 182.53 208.353 201.522C204.296 206.642 196.893 207.593 191.687 203.646L163.863 182.548C158.756 178.676 157.612 171.482 161.219 166.185C184.846 131.491 214.94 112 261.794 112C310.865 112 363.244 150.304 363.244 200.8V200.8ZM298 368C298 391.159 279.159 410 256 410C232.841 410 214 391.159 214 368C214 344.841 232.841 326 256 326C279.159 326 298 344.841 298 368Z" fill="#8A2529"/>
</svg>
