<svg width="640" height="513" viewBox="0 0 640 513" fill="none" xmlns="http://www.w3.org/2000/svg">
<g clip-path="url(#clip0)">
<path d="M224 256.835C249.316 256.835 274.063 249.328 295.113 235.263C316.162 221.198 332.569 201.207 342.257 177.818C351.945 154.43 354.479 128.693 349.541 103.863C344.602 79.0339 332.411 56.2265 314.51 38.3254C296.609 20.4242 273.801 8.23341 248.972 3.2945C224.142 -1.64441 198.405 0.890421 175.017 10.5784C151.628 20.2665 131.637 36.6725 117.572 57.722C103.507 78.7715 96 103.519 96 128.835C96 162.783 109.486 195.34 133.49 219.345C157.495 243.349 190.052 256.835 224 256.835ZM320 320.835C320.072 310.146 322.859 299.651 328.1 290.335C323.3 289.835 318.6 288.835 313.6 288.835H296.9C274.042 299.376 249.171 304.835 224 304.835C198.829 304.835 173.958 299.376 151.1 288.835H134.4C98.7573 288.843 64.5768 303.005 39.3736 328.209C14.1705 353.412 0.00795329 387.592 0 423.235L0 464.835C0 477.565 5.05713 489.774 14.0589 498.776C23.0606 507.778 35.2696 512.835 48 512.835H328.9C323.149 503.146 320.077 492.102 320 480.835V320.835ZM608 288.835H576V208.835C576 187.618 567.571 167.269 552.569 152.266C537.566 137.264 517.217 128.835 496 128.835C474.783 128.835 454.434 137.264 439.431 152.266C424.429 167.269 416 187.618 416 208.835V288.835H384C375.513 288.835 367.374 292.206 361.373 298.208C355.371 304.209 352 312.348 352 320.835V480.835C352 489.322 355.371 497.461 361.373 503.462C367.374 509.464 375.513 512.835 384 512.835H608C616.487 512.835 624.626 509.464 630.627 503.462C636.629 497.461 640 489.322 640 480.835V320.835C640 312.348 636.629 304.209 630.627 298.208C624.626 292.206 616.487 288.835 608 288.835ZM496 432.835C489.671 432.835 483.484 430.958 478.222 427.442C472.959 423.926 468.858 418.928 466.436 413.081C464.014 407.234 463.38 400.8 464.615 394.592C465.85 388.385 468.897 382.683 473.373 378.208C477.848 373.732 483.55 370.685 489.757 369.45C495.965 368.215 502.399 368.849 508.246 371.271C514.093 373.693 519.091 377.794 522.607 383.057C526.123 388.319 528 394.506 528 400.835C528 409.322 524.629 417.461 518.627 423.462C512.626 429.464 504.487 432.835 496 432.835ZM528 288.835H464V208.835C464 200.348 467.371 192.209 473.373 186.208C479.374 180.206 487.513 176.835 496 176.835C504.487 176.835 512.626 180.206 518.627 186.208C524.629 192.209 528 200.348 528 208.835V288.835Z" fill="#8A2529"/>
</g>
<defs>
<clipPath id="clip0">
<rect width="640" height="512" fill="white" transform="translate(0 0.835022)"/>
</clipPath>
</defs>
</svg>
