<svg width="52" height="70" viewBox="0 0 52 70" fill="none" xmlns="http://www.w3.org/2000/svg">
<path d="M13.1515 49.5775C11.9747 48.3894 12.5881 48.7243 9.74978 47.9573C8.46197 47.6087 7.32989 46.9388 6.30614 46.1363L0.162279 61.3448C-0.4322 62.8173 0.678217 64.4169 2.25176 64.3568L9.38687 64.082L14.2944 69.3155C15.3777 70.4695 17.279 70.1099 17.8734 68.6374L24.9219 51.1894C23.454 52.0152 21.8249 52.4991 20.1403 52.4991C17.4997 52.4991 15.0188 51.4614 13.1515 49.5775ZM51.8373 61.3448L45.6934 46.1363C44.6697 46.9402 43.5376 47.6087 42.2498 47.9573C39.3966 48.7284 40.0222 48.3921 38.8481 49.5775C36.9807 51.4614 34.4985 52.4991 31.8579 52.4991C30.1733 52.4991 28.5443 52.0138 27.0764 51.1894L34.1248 68.6374C34.7193 70.1099 36.6219 70.4695 37.7039 69.3155L42.6127 64.082L49.7478 64.3568C51.3214 64.4169 52.4318 62.8159 51.8373 61.3448ZM35.6144 46.4835C37.6835 44.3575 37.9205 44.5407 40.8672 43.73C42.7481 43.2118 44.2188 41.7011 44.7225 39.7679C45.7354 35.8851 45.4727 36.354 48.2366 33.513C49.6138 32.098 50.1514 30.0349 49.6476 28.1017C48.636 24.2216 48.6347 24.763 49.6476 20.8788C50.1514 18.9456 49.6138 16.8825 48.2366 15.4675C45.4727 12.6265 45.7354 13.0941 44.7225 9.21262C44.2188 7.27942 42.7481 5.76868 40.8672 5.25052C37.0918 4.21009 37.5468 4.48216 34.7802 1.63977C33.403 0.224735 31.3948 -0.328976 29.5139 0.189188C25.7398 1.22825 26.2666 1.22962 22.4857 0.189188C20.6048 -0.328976 18.5966 0.223368 17.2194 1.63977C14.4555 4.48079 14.9105 4.21009 11.1337 5.25052C9.2528 5.76868 7.78218 7.27942 7.27843 9.21262C6.26686 13.0941 6.52822 12.6265 3.76436 15.4675C2.38718 16.8825 1.84822 18.9456 2.35332 20.8788C3.36488 24.7562 3.36624 24.2148 2.35332 28.1003C1.84957 30.0335 2.38718 32.0966 3.76436 33.513C6.52822 36.354 6.26551 35.8851 7.27843 39.7679C7.78218 41.7011 9.2528 43.2118 11.1337 43.73C14.1644 44.564 14.3905 44.4327 16.3852 46.4835C18.1768 48.3251 20.9677 48.6546 23.1208 47.2792C23.9818 46.7274 24.9806 46.4343 26.0005 46.4343C27.0203 46.4343 28.0191 46.7274 28.8801 47.2792C31.0319 48.6546 33.8228 48.3251 35.6144 46.4835ZM13.2246 24.0562C13.2246 16.806 18.9446 10.9284 25.9998 10.9284C33.055 10.9284 38.775 16.806 38.775 24.0562C38.775 31.3064 33.055 37.1839 25.9998 37.1839C18.9446 37.1839 13.2246 31.3064 13.2246 24.0562Z" fill="#009EE0"/>
</svg>
