<svg width="189" height="171" viewBox="0 0 189 171" fill="none" xmlns="http://www.w3.org/2000/svg">
<circle cx="187.147" cy="1.85294" r="1.85294" fill="white"/>
<circle cx="187.147" cy="90.7941" r="1.85294" fill="white"/>
<circle cx="187.147" cy="46.3235" r="1.85294" fill="white"/>
<circle cx="187.147" cy="135.265" r="1.85294" fill="white"/>
<circle cx="187.147" cy="24.0882" r="1.85294" fill="white"/>
<circle cx="187.147" cy="113.029" r="1.85294" fill="white"/>
<circle cx="187.147" cy="68.5588" r="1.85294" fill="white"/>
<circle cx="187.147" cy="157.5" r="1.85294" fill="white"/>
<circle cx="187.147" cy="12.9706" r="1.85294" fill="white"/>
<circle cx="187.147" cy="101.912" r="1.85294" fill="white"/>
<circle cx="187.147" cy="57.4411" r="1.85294" fill="white"/>
<circle cx="187.147" cy="146.382" r="1.85294" fill="white"/>
<circle cx="187.147" cy="35.2059" r="1.85294" fill="white"/>
<circle cx="187.147" cy="124.147" r="1.85294" fill="white"/>
<circle cx="187.147" cy="79.6766" r="1.85294" fill="white"/>
<circle cx="187.147" cy="168.618" r="1.85294" fill="white"/>
<circle cx="88.3235" cy="1.85294" r="1.85294" fill="white"/>
<circle cx="88.3235" cy="90.7941" r="1.85294" fill="white"/>
<circle cx="88.3235" cy="46.3235" r="1.85294" fill="white"/>
<circle cx="88.3235" cy="135.265" r="1.85294" fill="white"/>
<circle cx="88.3235" cy="24.0882" r="1.85294" fill="white"/>
<circle cx="88.3235" cy="113.029" r="1.85294" fill="white"/>
<circle cx="88.3235" cy="68.5588" r="1.85294" fill="white"/>
<circle cx="88.3235" cy="157.5" r="1.85294" fill="white"/>
<circle cx="88.3235" cy="12.9706" r="1.85294" fill="white"/>
<circle cx="88.3235" cy="101.912" r="1.85294" fill="white"/>
<circle cx="88.3235" cy="57.4411" r="1.85294" fill="white"/>
<circle cx="88.3235" cy="146.382" r="1.85294" fill="white"/>
<circle cx="88.3235" cy="35.2059" r="1.85294" fill="white"/>
<circle cx="88.3235" cy="124.147" r="1.85294" fill="white"/>
<circle cx="88.3235" cy="79.6766" r="1.85294" fill="white"/>
<circle cx="88.3235" cy="168.618" r="1.85294" fill="white"/>
<circle cx="137.735" cy="1.85294" r="1.85294" fill="white"/>
<circle cx="137.735" cy="90.7941" r="1.85294" fill="white"/>
<circle cx="137.735" cy="46.3235" r="1.85294" fill="white"/>
<circle cx="137.735" cy="135.265" r="1.85294" fill="white"/>
<circle cx="137.735" cy="24.0882" r="1.85294" fill="white"/>
<circle cx="137.735" cy="113.029" r="1.85294" fill="white"/>
<circle cx="137.735" cy="68.5588" r="1.85294" fill="white"/>
<circle cx="137.735" cy="157.5" r="1.85294" fill="white"/>
<circle cx="137.735" cy="12.9706" r="1.85294" fill="white"/>
<circle cx="137.735" cy="101.912" r="1.85294" fill="white"/>
<circle cx="137.735" cy="57.4411" r="1.85294" fill="white"/>
<circle cx="137.735" cy="146.382" r="1.85294" fill="white"/>
<circle cx="137.735" cy="35.2059" r="1.85294" fill="white"/>
<circle cx="137.735" cy="124.147" r="1.85294" fill="white"/>
<circle cx="137.735" cy="79.6766" r="1.85294" fill="white"/>
<circle cx="137.735" cy="168.618" r="1.85294" fill="white"/>
<circle cx="38.9117" cy="1.85294" r="1.85294" fill="white"/>
<circle cx="38.9117" cy="90.7941" r="1.85294" fill="white"/>
<circle cx="38.9117" cy="46.3235" r="1.85294" fill="white"/>
<circle cx="38.9117" cy="135.265" r="1.85294" fill="white"/>
<circle cx="38.9117" cy="24.0882" r="1.85294" fill="white"/>
<circle cx="38.9117" cy="113.029" r="1.85294" fill="white"/>
<circle cx="38.9117" cy="68.5588" r="1.85294" fill="white"/>
<circle cx="38.9117" cy="157.5" r="1.85294" fill="white"/>
<circle cx="38.9117" cy="12.9706" r="1.85294" fill="white"/>
<circle cx="38.9117" cy="101.912" r="1.85294" fill="white"/>
<circle cx="38.9117" cy="57.4411" r="1.85294" fill="white"/>
<circle cx="38.9117" cy="146.382" r="1.85294" fill="white"/>
<circle cx="38.9117" cy="35.2059" r="1.85294" fill="white"/>
<circle cx="38.9117" cy="124.147" r="1.85294" fill="white"/>
<circle cx="38.9117" cy="79.6766" r="1.85294" fill="white"/>
<circle cx="38.9117" cy="168.618" r="1.85294" fill="white"/>
<circle cx="162.441" cy="1.85294" r="1.85294" fill="white"/>
<circle cx="162.441" cy="90.7941" r="1.85294" fill="white"/>
<circle cx="162.441" cy="46.3235" r="1.85294" fill="white"/>
<circle cx="162.441" cy="135.265" r="1.85294" fill="white"/>
<circle cx="162.441" cy="24.0882" r="1.85294" fill="white"/>
<circle cx="162.441" cy="113.029" r="1.85294" fill="white"/>
<circle cx="162.441" cy="68.5588" r="1.85294" fill="white"/>
<circle cx="162.441" cy="157.5" r="1.85294" fill="white"/>
<circle cx="162.441" cy="12.9706" r="1.85294" fill="white"/>
<circle cx="162.441" cy="101.912" r="1.85294" fill="white"/>
<circle cx="162.441" cy="57.4411" r="1.85294" fill="white"/>
<circle cx="162.441" cy="146.382" r="1.85294" fill="white"/>
<circle cx="162.441" cy="35.2059" r="1.85294" fill="white"/>
<circle cx="162.441" cy="124.147" r="1.85294" fill="white"/>
<circle cx="162.441" cy="79.6766" r="1.85294" fill="white"/>
<circle cx="162.441" cy="168.618" r="1.85294" fill="white"/>
<circle cx="63.6176" cy="1.85294" r="1.85294" fill="white"/>
<circle cx="63.6176" cy="90.7941" r="1.85294" fill="white"/>
<circle cx="63.6176" cy="46.3235" r="1.85294" fill="white"/>
<circle cx="63.6176" cy="135.265" r="1.85294" fill="white"/>
<circle cx="63.6176" cy="24.0882" r="1.85294" fill="white"/>
<circle cx="63.6176" cy="113.029" r="1.85294" fill="white"/>
<circle cx="63.6176" cy="68.5588" r="1.85294" fill="white"/>
<circle cx="63.6176" cy="157.5" r="1.85294" fill="white"/>
<circle cx="63.6176" cy="12.9706" r="1.85294" fill="white"/>
<circle cx="63.6176" cy="101.912" r="1.85294" fill="white"/>
<circle cx="63.6176" cy="57.4411" r="1.85294" fill="white"/>
<circle cx="63.6176" cy="146.382" r="1.85294" fill="white"/>
<circle cx="63.6176" cy="35.2059" r="1.85294" fill="white"/>
<circle cx="63.6176" cy="124.147" r="1.85294" fill="white"/>
<circle cx="63.6176" cy="79.6766" r="1.85294" fill="white"/>
<circle cx="63.6176" cy="168.618" r="1.85294" fill="white"/>
<circle cx="113.029" cy="1.85294" r="1.85294" fill="white"/>
<circle cx="113.029" cy="90.7941" r="1.85294" fill="white"/>
<circle cx="113.029" cy="46.3235" r="1.85294" fill="white"/>
<circle cx="113.029" cy="135.265" r="1.85294" fill="white"/>
<circle cx="113.029" cy="24.0882" r="1.85294" fill="white"/>
<circle cx="113.029" cy="113.029" r="1.85294" fill="white"/>
<circle cx="113.029" cy="68.5588" r="1.85294" fill="white"/>
<circle cx="113.029" cy="157.5" r="1.85294" fill="white"/>
<circle cx="113.029" cy="12.9706" r="1.85294" fill="white"/>
<circle cx="113.029" cy="101.912" r="1.85294" fill="white"/>
<circle cx="113.029" cy="57.4411" r="1.85294" fill="white"/>
<circle cx="113.029" cy="146.382" r="1.85294" fill="white"/>
<circle cx="113.029" cy="35.2059" r="1.85294" fill="white"/>
<circle cx="113.029" cy="124.147" r="1.85294" fill="white"/>
<circle cx="113.029" cy="79.6766" r="1.85294" fill="white"/>
<circle cx="113.029" cy="168.618" r="1.85294" fill="white"/>
<circle cx="14.2059" cy="1.85294" r="1.85294" fill="white"/>
<circle cx="14.2059" cy="90.7941" r="1.85294" fill="white"/>
<circle cx="14.2059" cy="46.3235" r="1.85294" fill="white"/>
<circle cx="14.2059" cy="135.265" r="1.85294" fill="white"/>
<circle cx="14.2059" cy="24.0882" r="1.85294" fill="white"/>
<circle cx="14.2059" cy="113.029" r="1.85294" fill="white"/>
<circle cx="14.2059" cy="68.5588" r="1.85294" fill="white"/>
<circle cx="14.2059" cy="157.5" r="1.85294" fill="white"/>
<circle cx="14.2059" cy="12.9706" r="1.85294" fill="white"/>
<circle cx="14.2059" cy="101.912" r="1.85294" fill="white"/>
<circle cx="14.2059" cy="57.4411" r="1.85294" fill="white"/>
<circle cx="14.2059" cy="146.382" r="1.85294" fill="white"/>
<circle cx="14.2059" cy="35.2059" r="1.85294" fill="white"/>
<circle cx="14.2059" cy="124.147" r="1.85294" fill="white"/>
<circle cx="14.2059" cy="79.6766" r="1.85294" fill="white"/>
<circle cx="14.2059" cy="168.618" r="1.85294" fill="white"/>
<circle cx="174.794" cy="1.85294" r="1.85294" fill="white"/>
<circle cx="174.794" cy="90.7941" r="1.85294" fill="white"/>
<circle cx="174.794" cy="46.3235" r="1.85294" fill="white"/>
<circle cx="174.794" cy="135.265" r="1.85294" fill="white"/>
<circle cx="174.794" cy="24.0882" r="1.85294" fill="white"/>
<circle cx="174.794" cy="113.029" r="1.85294" fill="white"/>
<circle cx="174.794" cy="68.5588" r="1.85294" fill="white"/>
<circle cx="174.794" cy="157.5" r="1.85294" fill="white"/>
<circle cx="174.794" cy="12.9706" r="1.85294" fill="white"/>
<circle cx="174.794" cy="101.912" r="1.85294" fill="white"/>
<circle cx="174.794" cy="57.4411" r="1.85294" fill="white"/>
<circle cx="174.794" cy="146.382" r="1.85294" fill="white"/>
<circle cx="174.794" cy="35.2059" r="1.85294" fill="white"/>
<circle cx="174.794" cy="124.147" r="1.85294" fill="white"/>
<circle cx="174.794" cy="79.6766" r="1.85294" fill="white"/>
<circle cx="174.794" cy="168.618" r="1.85294" fill="white"/>
<circle cx="75.9706" cy="1.85294" r="1.85294" fill="white"/>
<circle cx="75.9706" cy="90.7941" r="1.85294" fill="white"/>
<circle cx="75.9706" cy="46.3235" r="1.85294" fill="white"/>
<circle cx="75.9706" cy="135.265" r="1.85294" fill="white"/>
<circle cx="75.9706" cy="24.0882" r="1.85294" fill="white"/>
<circle cx="75.9706" cy="113.029" r="1.85294" fill="white"/>
<circle cx="75.9706" cy="68.5588" r="1.85294" fill="white"/>
<circle cx="75.9706" cy="157.5" r="1.85294" fill="white"/>
<circle cx="75.9706" cy="12.9706" r="1.85294" fill="white"/>
<circle cx="75.9706" cy="101.912" r="1.85294" fill="white"/>
<circle cx="75.9706" cy="57.4411" r="1.85294" fill="white"/>
<circle cx="75.9706" cy="146.382" r="1.85294" fill="white"/>
<circle cx="75.9706" cy="35.2059" r="1.85294" fill="white"/>
<circle cx="75.9706" cy="124.147" r="1.85294" fill="white"/>
<circle cx="75.9706" cy="79.6766" r="1.85294" fill="white"/>
<circle cx="75.9706" cy="168.618" r="1.85294" fill="white"/>
<circle cx="125.382" cy="1.85294" r="1.85294" fill="white"/>
<circle cx="125.382" cy="90.7941" r="1.85294" fill="white"/>
<circle cx="125.382" cy="46.3235" r="1.85294" fill="white"/>
<circle cx="125.382" cy="135.265" r="1.85294" fill="white"/>
<circle cx="125.382" cy="24.0882" r="1.85294" fill="white"/>
<circle cx="125.382" cy="113.029" r="1.85294" fill="white"/>
<circle cx="125.382" cy="68.5588" r="1.85294" fill="white"/>
<circle cx="125.382" cy="157.5" r="1.85294" fill="white"/>
<circle cx="125.382" cy="12.9706" r="1.85294" fill="white"/>
<circle cx="125.382" cy="101.912" r="1.85294" fill="white"/>
<circle cx="125.382" cy="57.4411" r="1.85294" fill="white"/>
<circle cx="125.382" cy="146.382" r="1.85294" fill="white"/>
<circle cx="125.382" cy="35.2059" r="1.85294" fill="white"/>
<circle cx="125.382" cy="124.147" r="1.85294" fill="white"/>
<circle cx="125.382" cy="79.6766" r="1.85294" fill="white"/>
<circle cx="125.382" cy="168.618" r="1.85294" fill="white"/>
<circle cx="26.5588" cy="1.85294" r="1.85294" fill="white"/>
<circle cx="26.5588" cy="90.7941" r="1.85294" fill="white"/>
<circle cx="26.5588" cy="46.3235" r="1.85294" fill="white"/>
<circle cx="26.5588" cy="135.265" r="1.85294" fill="white"/>
<circle cx="26.5588" cy="24.0882" r="1.85294" fill="white"/>
<circle cx="26.5588" cy="113.029" r="1.85294" fill="white"/>
<circle cx="26.5588" cy="68.5588" r="1.85294" fill="white"/>
<circle cx="26.5588" cy="157.5" r="1.85294" fill="white"/>
<circle cx="26.5588" cy="12.9706" r="1.85294" fill="white"/>
<circle cx="26.5588" cy="101.912" r="1.85294" fill="white"/>
<circle cx="26.5588" cy="57.4411" r="1.85294" fill="white"/>
<circle cx="26.5588" cy="146.382" r="1.85294" fill="white"/>
<circle cx="26.5588" cy="35.2059" r="1.85294" fill="white"/>
<circle cx="26.5588" cy="124.147" r="1.85294" fill="white"/>
<circle cx="26.5588" cy="79.6766" r="1.85294" fill="white"/>
<circle cx="26.5588" cy="168.618" r="1.85294" fill="white"/>
<circle cx="150.088" cy="1.85294" r="1.85294" fill="white"/>
<circle cx="150.088" cy="90.7941" r="1.85294" fill="white"/>
<circle cx="150.088" cy="46.3235" r="1.85294" fill="white"/>
<circle cx="150.088" cy="135.265" r="1.85294" fill="white"/>
<circle cx="150.088" cy="24.0882" r="1.85294" fill="white"/>
<circle cx="150.088" cy="113.029" r="1.85294" fill="white"/>
<circle cx="150.088" cy="68.5588" r="1.85294" fill="white"/>
<circle cx="150.088" cy="157.5" r="1.85294" fill="white"/>
<circle cx="150.088" cy="12.9706" r="1.85294" fill="white"/>
<circle cx="150.088" cy="101.912" r="1.85294" fill="white"/>
<circle cx="150.088" cy="57.4411" r="1.85294" fill="white"/>
<circle cx="150.088" cy="146.382" r="1.85294" fill="white"/>
<circle cx="150.088" cy="35.2059" r="1.85294" fill="white"/>
<circle cx="150.088" cy="124.147" r="1.85294" fill="white"/>
<circle cx="150.088" cy="79.6766" r="1.85294" fill="white"/>
<circle cx="150.088" cy="168.618" r="1.85294" fill="white"/>
<circle cx="51.2647" cy="1.85294" r="1.85294" fill="white"/>
<circle cx="51.2647" cy="90.7941" r="1.85294" fill="white"/>
<circle cx="51.2647" cy="46.3235" r="1.85294" fill="white"/>
<circle cx="51.2647" cy="135.265" r="1.85294" fill="white"/>
<circle cx="51.2647" cy="24.0882" r="1.85294" fill="white"/>
<circle cx="51.2647" cy="113.029" r="1.85294" fill="white"/>
<circle cx="51.2647" cy="68.5588" r="1.85294" fill="white"/>
<circle cx="51.2647" cy="157.5" r="1.85294" fill="white"/>
<circle cx="51.2647" cy="12.9706" r="1.85294" fill="white"/>
<circle cx="51.2647" cy="101.912" r="1.85294" fill="white"/>
<circle cx="51.2647" cy="57.4411" r="1.85294" fill="white"/>
<circle cx="51.2647" cy="146.382" r="1.85294" fill="white"/>
<circle cx="51.2647" cy="35.2059" r="1.85294" fill="white"/>
<circle cx="51.2647" cy="124.147" r="1.85294" fill="white"/>
<circle cx="51.2647" cy="79.6766" r="1.85294" fill="white"/>
<circle cx="51.2647" cy="168.618" r="1.85294" fill="white"/>
<circle cx="100.676" cy="1.85294" r="1.85294" fill="white"/>
<circle cx="100.676" cy="90.7941" r="1.85294" fill="white"/>
<circle cx="100.676" cy="46.3235" r="1.85294" fill="white"/>
<circle cx="100.676" cy="135.265" r="1.85294" fill="white"/>
<circle cx="100.676" cy="24.0882" r="1.85294" fill="white"/>
<circle cx="100.676" cy="113.029" r="1.85294" fill="white"/>
<circle cx="100.676" cy="68.5588" r="1.85294" fill="white"/>
<circle cx="100.676" cy="157.5" r="1.85294" fill="white"/>
<circle cx="100.676" cy="12.9706" r="1.85294" fill="white"/>
<circle cx="100.676" cy="101.912" r="1.85294" fill="white"/>
<circle cx="100.676" cy="57.4411" r="1.85294" fill="white"/>
<circle cx="100.676" cy="146.382" r="1.85294" fill="white"/>
<circle cx="100.676" cy="35.2059" r="1.85294" fill="white"/>
<circle cx="100.676" cy="124.147" r="1.85294" fill="white"/>
<circle cx="100.676" cy="79.6766" r="1.85294" fill="white"/>
<circle cx="100.676" cy="168.618" r="1.85294" fill="white"/>
<circle cx="1.85294" cy="2.08817" r="1.85294" fill="white"/>
<circle cx="1.85294" cy="90.7941" r="1.85294" fill="white"/>
<circle cx="1.85294" cy="46.3235" r="1.85294" fill="white"/>
<circle cx="1.85294" cy="135.265" r="1.85294" fill="white"/>
<circle cx="1.85294" cy="24.3234" r="1.85294" fill="white"/>
<circle cx="1.85294" cy="113.029" r="1.85294" fill="white"/>
<circle cx="1.85294" cy="68.5588" r="1.85294" fill="white"/>
<circle cx="1.85294" cy="157.5" r="1.85294" fill="white"/>
<circle cx="1.85294" cy="13.2058" r="1.85294" fill="white"/>
<circle cx="1.85294" cy="101.912" r="1.85294" fill="white"/>
<circle cx="1.85294" cy="57.4411" r="1.85294" fill="white"/>
<circle cx="1.85294" cy="146.382" r="1.85294" fill="white"/>
<circle cx="1.85294" cy="35.2059" r="1.85294" fill="white"/>
<circle cx="1.85294" cy="124.147" r="1.85294" fill="white"/>
<circle cx="1.85294" cy="79.6766" r="1.85294" fill="white"/>
<circle cx="1.85294" cy="168.618" r="1.85294" fill="white"/>
</svg>
