<svg width="70" height="70" viewBox="0 0 70 70" fill="none" xmlns="http://www.w3.org/2000/svg">
<path d="M62.4809 47.0879C59.0561 49.8674 55.2855 52.1711 51.1963 53.7939L58.6309 66.6712L66.0068 69.8212C67.348 70.394 68.8628 69.519 69.0378 68.0712L69.9975 60.1075L62.4809 47.0879ZM68.2899 34.16C68.9544 33.1114 68.5483 31.7005 67.4628 31.0989L63.6252 28.9703C62.6025 28.4029 61.3543 28.7706 60.7186 29.7523C55.0982 38.4379 45.4241 43.7493 34.9995 43.7493C31.7278 43.7493 28.5423 43.1683 25.51 42.173L34.7192 26.2209C34.8149 26.2236 34.9024 26.2496 34.9981 26.2496C35.0938 26.2496 35.1827 26.2236 35.277 26.2209L42.2618 38.3203C46.5315 37.0953 50.4047 34.7998 53.556 31.6321L46.4754 19.3673C47.494 17.5038 48.1242 15.3984 48.1242 13.1248C48.1242 5.87608 42.2482 0 34.9995 0C27.7507 0 21.8747 5.87608 21.8747 13.1248C21.8747 15.3984 22.5049 17.5038 23.5221 19.3673L14.1843 35.5422C12.4686 33.9549 10.9086 32.1804 9.57973 30.2103C8.92486 29.2396 7.6698 28.8951 6.65673 29.4816L2.86285 31.6786C1.78962 32.2993 1.40955 33.7157 2.09176 34.7506C4.22044 37.9826 6.83446 40.7949 9.74516 43.2298L0 60.1088L0.959751 68.0726C1.13475 69.5204 2.64957 70.3954 3.99076 69.8225L11.3666 66.6726L21.0462 49.907C25.4471 51.5804 30.1624 52.4992 34.9995 52.4992C48.5412 52.4992 61.0959 45.5253 68.2899 34.16ZM34.9995 8.74986C37.4152 8.74986 39.3744 10.709 39.3744 13.1248C39.3744 15.5406 37.4152 17.4997 34.9995 17.4997C32.5837 17.4997 30.6245 15.5406 30.6245 13.1248C30.6245 10.709 32.5837 8.74986 34.9995 8.74986Z" fill="#009EE0"/>
</svg>
