<svg width="53" height="70" viewBox="0 0 53 70" fill="none" xmlns="http://www.w3.org/2000/svg">
<g clip-path="url(#clip0)">
<path d="M52.043 14.3555L38.6582 0.957031C38.043 0.341797 37.209 0 36.334 0H35.5V17.5H53V16.666C53 15.8047 52.6582 14.9707 52.043 14.3555ZM31.125 18.5938V0H3.78125C1.96289 0 0.5 1.46289 0.5 3.28125V66.7188C0.5 68.5371 1.96289 70 3.78125 70H49.7188C51.5371 70 53 68.5371 53 66.7188V21.875H34.4062C32.6016 21.875 31.125 20.3984 31.125 18.5938ZM9.25 9.84375C9.25 9.23945 9.73945 8.75 10.3438 8.75H21.2812C21.8855 8.75 22.375 9.23945 22.375 9.84375V12.0312C22.375 12.6355 21.8855 13.125 21.2812 13.125H10.3438C9.73945 13.125 9.25 12.6355 9.25 12.0312V9.84375ZM9.25 20.7812V18.5938C9.25 17.9895 9.73945 17.5 10.3438 17.5H21.2812C21.8855 17.5 22.375 17.9895 22.375 18.5938V20.7812C22.375 21.3855 21.8855 21.875 21.2812 21.875H10.3438C9.73945 21.875 9.25 21.3855 9.25 20.7812ZM28.9375 56.8586V60.1562C28.9375 60.7605 28.448 61.25 27.8438 61.25H25.6562C25.052 61.25 24.5625 60.7605 24.5625 60.1562V56.8354C23.0189 56.7561 21.5178 56.2174 20.2736 55.2836C19.7404 54.883 19.7131 54.0846 20.1957 53.6238L21.8021 52.0912C22.1809 51.7303 22.7441 51.7139 23.1871 51.9914C23.7162 52.3223 24.3164 52.5 24.9398 52.5H28.783C29.6717 52.5 30.3963 51.6906 30.3963 50.6967C30.3963 49.8832 29.9027 49.1668 29.1973 48.9562L23.0449 47.1105C20.5033 46.3477 18.7273 43.9086 18.7273 41.1783C18.7273 37.826 21.3318 35.1025 24.5611 35.0164V31.7188C24.5611 31.1145 25.0506 30.625 25.6549 30.625H27.8424C28.4467 30.625 28.9361 31.1145 28.9361 31.7188V35.0396C30.4797 35.1189 31.9809 35.6563 33.225 36.5914C33.7582 36.992 33.7855 37.7904 33.3029 38.2512L31.6965 39.7838C31.3178 40.1447 30.7545 40.1611 30.3115 39.8836C29.7824 39.5514 29.1822 39.375 28.5588 39.375H24.7156C23.827 39.375 23.1023 40.1844 23.1023 41.1783C23.1023 41.9918 23.5959 42.7082 24.3014 42.9188L30.4537 44.7645C32.9953 45.5273 34.7713 47.9664 34.7713 50.6967C34.7713 54.0504 32.1668 56.7725 28.9375 56.8586Z" fill="#009EE0"/>
</g>
<defs>
<clipPath id="clip0">
<rect width="52.5" height="70" fill="white" transform="translate(0.5)"/>
</clipPath>
</defs>
</svg>
