<svg width="77" height="71" viewBox="0 0 77 71" fill="none" xmlns="http://www.w3.org/2000/svg">
<path d="M35.7187 35.9087C35.7187 41.5135 31.1474 46.0847 25.5426 46.0847C19.9379 46.0847 15.3666 41.5135 15.3666 35.9087C15.3666 30.3039 19.9379 25.7327 25.5426 25.7327C31.1474 25.7327 35.7187 30.3039 35.7187 35.9087ZM66.2468 56.2608C66.2468 59.0433 63.981 61.3488 61.1588 61.3488C58.3762 61.3488 56.0707 59.083 56.0707 56.2608C56.0707 53.4783 58.3762 51.1728 61.1588 51.1728C63.9413 51.1728 66.2468 53.4783 66.2468 56.2608ZM66.2468 15.5566C66.2468 18.3391 63.981 20.6447 61.1588 20.6447C58.3762 20.6447 56.0707 18.3789 56.0707 15.5566C56.0707 12.7741 58.3762 10.4686 61.1588 10.4686C63.9413 10.4686 66.2468 12.7741 66.2468 15.5566ZM50.9827 32.2915C50.9827 31.7349 50.5852 31.2182 50.0287 31.0989L43.9867 30.1847C43.6289 29.0717 43.1519 27.9984 42.6352 26.9252C43.7482 25.3749 44.9407 23.9439 46.0935 22.3937C46.2525 22.1552 46.3717 21.9167 46.3717 21.6384C46.3717 20.5254 41.6812 16.2324 40.6477 15.2784C40.4092 15.0796 40.1309 14.9604 39.8129 14.9604C39.5347 14.9604 39.2564 15.0399 39.0179 15.2386L34.3274 18.7764C33.3734 18.2994 32.3797 17.8621 31.3461 17.5441L30.4319 11.4624C30.3524 10.9059 29.7959 10.4686 29.2394 10.4686H21.8459C21.2894 10.4686 20.8124 10.8661 20.6534 11.4226C20.1366 13.3704 19.9379 15.5566 19.7391 17.5441C18.6659 17.9019 17.6721 18.2994 16.6783 18.8162L12.1071 15.2386C11.8686 15.0796 11.5903 14.9604 11.2723 14.9604C10.1196 14.9604 5.66756 19.7702 4.87256 20.8434C4.67381 21.0819 4.59431 21.3602 4.59431 21.6384C4.59431 21.9167 4.71356 22.1949 4.87256 22.4334C6.14456 23.9439 7.33706 25.4147 8.45007 27.0047C7.93332 27.9984 7.49606 28.9922 7.17806 30.0257L1.01679 30.9797C0.500041 31.0592 0.102539 31.6554 0.102539 32.1722V39.526C0.102539 40.0825 0.500041 40.5992 1.05654 40.6787L7.09856 41.6327C7.45631 42.7457 7.93332 43.819 8.48982 44.8922C7.33706 46.4425 6.14456 47.9133 4.99181 49.4238C4.83281 49.6623 4.71356 49.9008 4.71356 50.179C4.71356 51.3318 9.40407 55.585 10.4376 56.539C10.6761 56.7378 10.9543 56.857 11.2723 56.857C11.5506 56.857 11.8686 56.7775 12.0673 56.5788L16.7578 53.041C17.7119 53.518 18.7056 53.9553 19.7391 54.2733L20.6534 60.355C20.7329 60.9116 21.2894 61.3488 21.8459 61.3488H29.2394C29.7959 61.3488 30.2729 60.9513 30.4319 60.3948C30.9486 58.447 31.1474 56.2608 31.3461 54.2335C32.4194 53.9155 33.4132 53.518 34.4069 53.0013L38.9782 56.5788C39.2167 56.7378 39.4949 56.857 39.8129 56.857C40.9657 56.857 45.4177 52.0075 46.2127 50.9343C46.4114 50.7355 46.4909 50.4573 46.4909 50.179C46.4909 49.861 46.3717 49.6225 46.2127 49.384C44.9407 47.8735 43.7482 46.4027 42.6352 44.8127C43.1519 43.819 43.5892 42.8252 43.9072 41.7917L50.0685 40.8377C50.5852 40.7582 50.9827 40.162 50.9827 39.6452V32.2915ZM76.4228 53.4783C76.4228 52.882 71.295 52.3255 70.5 52.246C70.182 51.5305 69.7845 50.815 69.3075 50.179C69.6653 49.384 71.3348 45.409 71.3348 44.6935C71.3348 44.614 71.295 44.4947 71.1758 44.4152C70.6988 44.137 66.4455 41.6327 66.2468 41.6327L66.0083 41.7122C64.6568 43.0637 63.4643 44.614 62.3513 46.1642C61.9538 46.1245 61.5563 46.0847 61.1588 46.0847C60.7613 46.0847 60.3637 46.1245 59.9662 46.1642C59.5687 45.568 56.5875 41.6327 56.0707 41.6327C55.872 41.6327 51.6187 44.1767 51.1417 44.4152C51.0225 44.4947 50.9827 44.614 50.9827 44.6935C50.9827 45.3692 52.6522 49.384 53.01 50.179C52.533 50.815 52.1355 51.5305 51.8175 52.246C51.0225 52.3255 45.8947 52.882 45.8947 53.4783V59.0433C45.8947 59.6395 51.0225 60.196 51.8175 60.2755C52.1355 61.0308 52.533 61.7066 53.01 62.3426C52.6522 63.1376 50.9827 67.1523 50.9827 67.8281C50.9827 67.9076 51.0225 68.0268 51.1417 68.1063C51.6187 68.3846 55.872 70.9286 56.0707 70.9286C56.5875 70.9286 59.5687 66.9536 59.9662 66.3573C60.3637 66.3971 60.7613 66.4368 61.1588 66.4368C61.5563 66.4368 61.9538 66.3971 62.3513 66.3573C62.7488 66.9536 65.73 70.9286 66.2468 70.9286C66.4455 70.9286 70.6988 68.3846 71.1758 68.1063C71.295 68.0268 71.3348 67.9473 71.3348 67.8281C71.3348 67.1126 69.6653 63.1376 69.3075 62.3426C69.7845 61.7066 70.182 61.0308 70.5 60.2755C71.295 60.196 76.4228 59.6395 76.4228 59.0433V53.4783ZM76.4228 12.7741C76.4228 12.1779 71.295 11.6214 70.5 11.5419C70.182 10.8264 69.7845 10.1109 69.3075 9.47487C69.6653 8.67987 71.3348 4.70485 71.3348 3.98935C71.3348 3.90985 71.295 3.7906 71.1758 3.7111C70.6988 3.43285 66.4455 0.928589 66.2468 0.928589L66.0083 1.00809C64.6568 2.35959 63.4643 3.90985 62.3513 5.46011C61.9538 5.42035 61.5563 5.3806 61.1588 5.3806C60.7613 5.3806 60.3637 5.42035 59.9662 5.46011C59.5687 4.86385 56.5875 0.928589 56.0707 0.928589C55.872 0.928589 51.6187 3.4726 51.1417 3.7111C51.0225 3.7906 50.9827 3.90985 50.9827 3.98935C50.9827 4.6651 52.6522 8.67987 53.01 9.47487C52.533 10.1109 52.1355 10.8264 51.8175 11.5419C51.0225 11.6214 45.8947 12.1779 45.8947 12.7741V18.3392C45.8947 18.9354 51.0225 19.4919 51.8175 19.5714C52.1355 20.3267 52.533 21.0024 53.01 21.6384C52.6522 22.4334 50.9827 26.4482 50.9827 27.1239C50.9827 27.2034 51.0225 27.3227 51.1417 27.4022C51.6187 27.6804 55.872 30.2244 56.0707 30.2244C56.5875 30.2244 59.5687 26.2494 59.9662 25.6532C60.3637 25.6929 60.7613 25.7327 61.1588 25.7327C61.5563 25.7327 61.9538 25.6929 62.3513 25.6532C62.7488 26.2494 65.73 30.2244 66.2468 30.2244C66.4455 30.2244 70.6988 27.6804 71.1758 27.4022C71.295 27.3227 71.3348 27.2432 71.3348 27.1239C71.3348 26.4084 69.6653 22.4334 69.3075 21.6384C69.7845 21.0024 70.182 20.3267 70.5 19.5714C71.295 19.4919 76.4228 18.9354 76.4228 18.3392V12.7741Z" fill="#009EE0"/>
</svg>
