<svg width="57" height="47" viewBox="0 0 57 47" fill="none" xmlns="http://www.w3.org/2000/svg">
<path d="M45.0545 17.8226C40.2261 17.8226 36.2731 21.749 36.2731 26.604C36.2731 31.4325 40.1995 35.3589 45.0545 35.3589C49.883 35.3589 53.836 31.4325 53.836 26.604C53.836 21.749 49.9095 17.8226 45.0545 17.8226Z" fill="#E35205"/>
<path d="M55.4543 15.4083C55.3482 15.4083 55.2686 15.3287 55.2686 15.2226V14.0288L54.7645 14.8512C54.6849 14.9839 54.4992 15.0104 54.3931 14.8512L53.889 14.0288V15.2226C53.889 15.3287 53.8094 15.4083 53.7033 15.4083C53.5972 15.4083 53.4911 15.3287 53.4911 15.2226V13.392C53.4911 13.2859 53.5707 13.2063 53.7033 13.2063C53.836 13.2063 53.889 13.2594 53.9155 13.339L54.5523 14.4002L55.2155 13.339C55.2686 13.2594 55.3216 13.2063 55.4278 13.2063C55.5604 13.2063 55.64 13.2859 55.64 13.392V15.2226C55.64 15.3287 55.5604 15.4083 55.4543 15.4083ZM52.4829 15.4083C52.3768 15.4083 52.2707 15.3287 52.2707 15.2226V13.6043H51.7666C51.6605 13.6043 51.5809 13.5247 51.5809 13.4186C51.5809 13.3125 51.6605 13.2329 51.7666 13.2329H53.1727C53.2788 13.2329 53.3584 13.3125 53.3584 13.4186C53.3584 13.5247 53.2788 13.6043 53.1727 13.6043H52.6686V15.2226C52.6952 15.3287 52.6156 15.4083 52.4829 15.4083ZM45.0545 37.7732C38.8995 37.7732 33.8588 32.759 33.8588 26.604C33.8588 20.449 38.873 15.4083 45.0545 15.4083C51.2095 15.4083 56.2502 20.4225 56.2502 26.604C56.2502 32.759 51.236 37.7732 45.0545 37.7732ZM45.0545 18.2736C40.4648 18.2736 36.7506 22.0143 36.7506 26.5775C36.7506 31.1672 40.4913 34.8814 45.0545 34.8814C49.6442 34.8814 53.3584 31.1407 53.3584 26.5775C53.3849 22.0143 49.6442 18.2736 45.0545 18.2736ZM30.2773 35.5181V1.82494C30.2773 0.975976 29.5875 0.286194 28.7385 0.286194C27.8896 0.286194 27.1998 0.975976 27.1998 1.82494V35.4916C27.1998 36.3406 27.8896 37.0569 28.7385 37.0569C29.5875 37.0569 30.2773 36.3671 30.2773 35.5181ZM22.9019 26.5775C22.9019 20.4225 17.8877 15.4083 11.7327 15.4083C5.55123 15.4083 0.537048 20.4225 0.537048 26.5775C0.537048 32.759 5.55123 37.7467 11.7327 37.7467C15.0225 37.7467 17.9938 36.314 20.0366 34.0324V35.5447C20.0366 40.1344 16.2959 43.8486 11.7327 43.8486C10.9368 43.8486 10.3001 44.4853 10.3001 45.2812C10.3001 46.0771 10.9368 46.7138 11.7327 46.7138C17.8877 46.7138 22.9284 41.6996 22.9284 35.5181V26.5775H22.9019ZM11.7327 34.9079C7.14304 34.9079 3.42883 31.1672 3.42883 26.604C3.42883 22.0143 7.16957 18.3001 11.7327 18.3001C16.3224 18.3001 20.0366 22.0408 20.0366 26.604C20.0366 31.1672 16.2959 34.9079 11.7327 34.9079Z" fill="#424652"/>
</svg>
