<svg width="24" height="24" viewBox="0 0 24 24" fill="none" xmlns="http://www.w3.org/2000/svg">
<path d="M17 3.5C17 3.22386 16.7761 3 16.5 3H14C12.6739 3 11.4021 3.50044 10.4645 4.39124C9.52678 5.28204 9 6.49022 9 7.75V10.1C9 10.3761 8.77614 10.6 8.5 10.6H6.5C6.22386 10.6 6 10.8239 6 11.1V13.9C6 14.1761 6.22386 14.4 6.5 14.4H8.5C8.77614 14.4 9 14.6239 9 14.9V21.5C9 21.7761 9.22386 22 9.5 22H12.5C12.7761 22 13 21.7761 13 21.5V14.9C13 14.6239 13.2239 14.4 13.5 14.4H15.6146C15.8417 14.4 16.0403 14.2469 16.0981 14.0272L16.8349 11.2272C16.9184 10.9102 16.6792 10.6 16.3514 10.6H13.5C13.2239 10.6 13 10.3761 13 10.1V7.75C13 7.49804 13.1054 7.25641 13.2929 7.07825C13.4804 6.90009 13.7348 6.8 14 6.8H16.5C16.7761 6.8 17 6.57614 17 6.3V3.5Z" fill="#171717"/>
</svg>
