<svg width="24" height="24" viewBox="0 0 24 24" fill="none" xmlns="http://www.w3.org/2000/svg">
<path fill-rule="evenodd" clip-rule="evenodd" d="M16 4H8C5.79086 4 4 5.79086 4 8V16C4 18.2091 5.79086 20 8 20H16C18.2091 20 20 18.2091 20 16V8C20 5.79086 18.2091 4 16 4ZM12.394 9.54193C11.8842 9.46634 11.3636 9.55341 10.9062 9.79076C10.4488 10.0281 10.0779 10.4036 9.8462 10.8639C9.61451 11.3242 9.53387 11.8459 9.61574 12.3547C9.69761 12.8634 9.93782 13.3335 10.3022 13.6978C10.6666 14.0622 11.1366 14.3024 11.6454 14.3843C12.1542 14.4662 12.6758 14.3855 13.1361 14.1539C13.5964 13.9222 13.972 13.5512 14.2093 13.0938C14.4466 12.6364 14.5337 12.1158 14.4581 11.6061C14.381 11.0861 14.1387 10.6047 13.767 10.233C13.3953 9.86133 12.914 9.61904 12.394 9.54193ZM10.2154 8.45932C10.9528 8.07667 11.7922 7.93629 12.614 8.05816C13.4523 8.18247 14.2284 8.5731 14.8277 9.17236C15.427 9.77162 15.8176 10.5477 15.9419 11.386C16.0638 12.2079 15.9234 13.0472 15.5407 13.7847C15.1581 14.5221 14.5526 15.1202 13.8105 15.4937C13.0684 15.8672 12.2274 15.9973 11.4071 15.8653C10.5868 15.7333 9.82904 15.346 9.24155 14.7585C8.65407 14.171 8.26678 13.4132 8.13479 12.593C8.0028 11.7727 8.13281 10.9317 8.50634 10.1896C8.87988 9.44743 9.47791 8.84198 10.2154 8.45932ZM16.4 6.85C15.9858 6.85 15.65 7.18579 15.65 7.6C15.65 8.01421 15.9858 8.35 16.4 8.35H16.408C16.8222 8.35 17.158 8.01421 17.158 7.6C17.158 7.18579 16.8222 6.85 16.408 6.85H16.4Z" fill="#171717"/>
</svg>
