<svg width="20" height="20" viewBox="0 0 20 20" fill="none" xmlns="http://www.w3.org/2000/svg">
<g opacity="0.6">
<path fill-rule="evenodd" clip-rule="evenodd" d="M10 18.3332C10 18.3332 16.6667 13.7877 16.6667 8.48469C16.6667 6.67639 15.9643 4.94216 14.7141 3.6635C13.4638 2.38485 11.7681 1.6665 10 1.6665C8.23193 1.6665 6.53624 2.38485 5.286 3.6635C4.03575 4.94216 3.33337 6.67639 3.33337 8.48469C3.33337 13.7877 10 18.3332 10 18.3332ZM12.2223 8.48472C12.2223 9.73991 11.2274 10.7574 10.0001 10.7574C8.77278 10.7574 7.77786 9.73991 7.77786 8.48472C7.77786 7.22953 8.77278 6.212 10.0001 6.212C11.2274 6.212 12.2223 7.22953 12.2223 8.48472Z" fill="white"/>
</g>
</svg>
