<svg width="20" height="21" viewBox="0 0 20 21" fill="none" xmlns="http://www.w3.org/2000/svg">
<g opacity="0.6">
<path fill-rule="evenodd" clip-rule="evenodd" d="M16.6666 3.8335H3.33329C2.67831 3.8335 2.10842 4.21641 1.83642 4.76943C1.92725 4.79051 2.01565 4.82899 2.09672 4.88574L9.99996 10.418L17.9032 4.88574C17.9843 4.82899 18.0727 4.79051 18.1635 4.76943C17.8915 4.21641 17.3216 3.8335 16.6666 3.8335ZM18.3333 6.41565L10.7168 11.7472C10.2864 12.0485 9.71353 12.0485 9.28313 11.7472L1.66663 6.41565V15.5002C1.66663 16.4168 2.41663 17.1668 3.33329 17.1668H16.6666C17.5833 17.1668 18.3333 16.4168 18.3333 15.5002V6.41565Z" fill="white"/>
</g>
</svg>
