<svg width="20" height="21" viewBox="0 0 20 21" fill="none" xmlns="http://www.w3.org/2000/svg">
<g opacity="0.6">
<path d="M18.3328 14.6447V17.1537C18.3337 17.3866 18.2859 17.6172 18.1924 17.8306C18.0989 18.044 17.9618 18.2356 17.7898 18.393C17.6178 18.5505 17.4148 18.6704 17.1937 18.745C16.9726 18.8196 16.7384 18.8473 16.5059 18.8264C13.9273 18.5467 11.4503 17.6673 9.27405 16.2588C7.24931 14.9748 5.53268 13.2616 4.24607 11.2408C2.82984 9.05899 1.94849 6.5749 1.67343 3.9898C1.65249 3.75852 1.68003 3.52543 1.75429 3.30536C1.82856 3.08529 1.94793 2.88306 2.1048 2.71156C2.26167 2.54005 2.4526 2.40302 2.66544 2.3092C2.87828 2.21537 3.10836 2.1668 3.34104 2.16658H5.85503C6.26171 2.16259 6.65597 2.30632 6.96433 2.57098C7.27269 2.83564 7.4741 3.20318 7.53102 3.60508C7.63713 4.40802 7.83391 5.1964 8.11761 5.95518C8.23036 6.25453 8.25476 6.57985 8.18793 6.89261C8.12109 7.20538 7.96582 7.49246 7.74051 7.71985L6.67626 8.782C7.86919 10.8758 9.60627 12.6094 11.7042 13.8L12.7685 12.7379C12.9963 12.513 13.284 12.358 13.5974 12.2913C13.9107 12.2246 14.2367 12.249 14.5367 12.3615C15.2969 12.6447 16.0869 12.841 16.8914 12.9469C17.2985 13.0043 17.6703 13.2089 17.936 13.5219C18.2018 13.835 18.343 14.2345 18.3328 14.6447Z" fill="white"/>
</g>
</svg>
