<svg width="24" height="24" viewBox="0 0 24 24" fill="none" xmlns="http://www.w3.org/2000/svg">
<path d="M21.921 16.8373C21.8955 16.7824 21.8718 16.7369 21.8498 16.7004C21.4848 16.0432 20.7875 15.2365 19.7582 14.2801L19.7364 14.2582L19.7255 14.2475L19.7145 14.2365H19.7035C19.2363 13.7911 18.9405 13.4917 18.8166 13.3384C18.5899 13.0463 18.5391 12.7507 18.663 12.4512C18.7505 12.2249 19.0793 11.747 19.6486 11.0168C19.948 10.6299 20.1852 10.3197 20.3603 10.0861C21.6234 8.40687 22.171 7.33383 22.003 6.86655L21.9377 6.75735C21.8939 6.69161 21.7808 6.63147 21.5984 6.57662C21.4157 6.52189 21.1822 6.51284 20.8974 6.54931L17.7436 6.5711C17.6926 6.55299 17.6196 6.55468 17.5246 6.57662C17.4296 6.59856 17.3821 6.60957 17.3821 6.60957L17.3273 6.63699L17.2837 6.66994C17.2472 6.69173 17.207 6.73004 17.1632 6.78482C17.1196 6.83939 17.0831 6.90345 17.0539 6.97644C16.7106 7.8598 16.3202 8.68111 15.8821 9.44032C15.6119 9.89303 15.3638 10.2854 15.1373 10.6176C14.911 10.9496 14.7212 11.1943 14.568 11.3511C14.4146 11.5081 14.2761 11.6339 14.1518 11.7289C14.0276 11.824 13.9328 11.8641 13.8672 11.8494C13.8014 11.8347 13.7395 11.8202 13.6808 11.8056C13.5787 11.7398 13.4965 11.6504 13.4346 11.5373C13.3724 11.4241 13.3305 11.2817 13.3086 11.1102C13.2868 10.9385 13.2739 10.7908 13.2703 10.6667C13.2668 10.5427 13.2684 10.3673 13.2758 10.141C13.2834 9.91454 13.2868 9.76135 13.2868 9.68104C13.2868 9.40357 13.2922 9.10244 13.3031 8.77757C13.3141 8.4527 13.3231 8.1953 13.3305 8.00567C13.338 7.81585 13.3414 7.61502 13.3414 7.4033C13.3414 7.19157 13.3286 7.02553 13.3031 6.90502C13.2779 6.78466 13.2393 6.66783 13.1884 6.55457C13.1372 6.44142 13.0623 6.35389 12.9639 6.29176C12.8654 6.2297 12.7429 6.18045 12.5971 6.14386C12.2101 6.05629 11.7174 6.00892 11.1186 6.00156C9.76077 5.98698 8.8883 6.07466 8.50137 6.26448C8.34806 6.34469 8.20933 6.45427 8.08529 6.59288C7.95384 6.75355 7.93551 6.84124 8.0304 6.85566C8.4685 6.92128 8.77864 7.07827 8.96117 7.32647L9.02695 7.45799C9.07812 7.55288 9.12921 7.72088 9.18033 7.96175C9.23139 8.20262 9.26433 8.46908 9.27883 8.76096C9.31527 9.29399 9.31527 9.75027 9.27883 10.1298C9.24228 10.5096 9.20776 10.8052 9.17481 11.0169C9.14186 11.2286 9.09262 11.4002 9.02695 11.5315C8.96117 11.6629 8.91741 11.7433 8.89547 11.7724C8.87357 11.8016 8.85531 11.8199 8.84081 11.8271C8.74592 11.8635 8.64723 11.882 8.54509 11.882C8.4428 11.882 8.31876 11.8309 8.17278 11.7286C8.02683 11.6263 7.87537 11.4859 7.71838 11.307C7.56139 11.1281 7.38434 10.878 7.18716 10.5568C6.99012 10.2357 6.78569 9.85605 6.57397 9.41803L6.3988 9.10037C6.28929 8.89601 6.13971 8.59845 5.94989 8.20796C5.75995 7.8173 5.59207 7.43943 5.44613 7.0744C5.38779 6.92109 5.30014 6.80438 5.18335 6.72406L5.12854 6.69111C5.0921 6.66196 5.03361 6.63101 4.95337 6.59802C4.87302 6.56508 4.78917 6.54145 4.70149 6.52691L1.70098 6.5487C1.39437 6.5487 1.18633 6.61816 1.07679 6.75689L1.03295 6.82252C1.01105 6.85907 1 6.91745 1 6.9978C1 7.07812 1.0219 7.17669 1.06574 7.29341C1.50376 8.32287 1.9801 9.3157 2.49475 10.2721C3.0094 11.2284 3.45663 11.9988 3.83616 12.5825C4.21576 13.1666 4.60269 13.7179 4.99694 14.2361C5.3912 14.7544 5.65217 15.0866 5.77986 15.2326C5.90769 15.3788 6.00811 15.4881 6.0811 15.5611L6.35492 15.8239C6.53013 15.9991 6.78742 16.209 7.1269 16.4535C7.46646 16.6982 7.84238 16.939 8.25486 17.1765C8.66741 17.4136 9.14735 17.607 9.69495 17.7567C10.2425 17.9064 10.7754 17.9665 11.2938 17.9375H12.5531C12.8085 17.9155 13.002 17.8352 13.1336 17.6966L13.1771 17.6417C13.2064 17.5981 13.2339 17.5304 13.2592 17.4393C13.2848 17.3481 13.2975 17.2475 13.2975 17.1382C13.29 16.8243 13.3139 16.5414 13.3686 16.2896C13.4231 16.0378 13.4853 15.848 13.5549 15.7202C13.6245 15.5925 13.7029 15.4847 13.7903 15.3973C13.8778 15.3097 13.9402 15.2567 13.9768 15.2384C14.0131 15.2201 14.0422 15.2076 14.0641 15.2001C14.2393 15.1417 14.4455 15.1983 14.683 15.37C14.9203 15.5416 15.1428 15.7534 15.351 16.0052C15.5591 16.2572 15.8091 16.5399 16.1011 16.8537C16.3932 17.1677 16.6487 17.4011 16.8676 17.5546L17.0865 17.686C17.2328 17.7737 17.4226 17.854 17.6562 17.927C17.8895 18 18.0938 18.0182 18.2693 17.9818L21.0726 17.938C21.3499 17.938 21.5656 17.8921 21.7187 17.801C21.872 17.7098 21.9631 17.6093 21.9925 17.4999C22.0218 17.3904 22.0233 17.2662 21.998 17.1274C21.9721 16.9889 21.9465 16.8921 21.921 16.8373Z" fill="#171717"/>
</svg>
