<svg width="24" height="24" viewBox="0 0 24 24" fill="none" xmlns="http://www.w3.org/2000/svg">
<path fill-rule="evenodd" clip-rule="evenodd" d="M20.8712 6.04992C21.1797 6.36792 21.3988 6.76169 21.5063 7.19146C21.7936 8.78407 21.9331 10.3998 21.9229 12.0181C21.9286 13.6122 21.7892 15.2035 21.5063 16.7723C21.3988 17.2021 21.1797 17.5959 20.8712 17.9139C20.5628 18.2319 20.1758 18.4628 19.7495 18.5834C18.192 19 11.9617 19 11.9617 19C11.9617 19 5.73144 19 4.17387 18.5834C3.75624 18.4692 3.37515 18.2491 3.0674 17.9445C2.75966 17.64 2.53567 17.2612 2.41708 16.8448C2.1298 15.2521 1.99036 13.6364 2.00052 12.0181C1.99258 10.4119 2.13202 8.80839 2.41708 7.22768C2.52465 6.79791 2.74373 6.40414 3.05219 6.08614C3.36065 5.76814 3.74757 5.53717 4.17387 5.41656C5.73144 5 11.9617 5 11.9617 5C11.9617 5 18.192 5 19.7495 5.38034C20.1758 5.50094 20.5628 5.73191 20.8712 6.04992ZM10.6713 14.5544C10.338 14.7439 9.92418 14.5032 9.92418 14.1197V9.91643C9.92418 9.53298 10.338 9.29224 10.6713 9.4818L14.3669 11.5834C14.704 11.7752 14.704 12.261 14.3669 12.4527L10.6713 14.5544Z" fill="#171717"/>
</svg>
